<?xml version="1.0" encoding="utf-8"?>
<!-- Generator: Adobe Illustrator 21.0.0, SVG Export Plug-In . SVG Version: 6.00 Build 0)  -->
<svg version="1.0" id="Layer_1" xmlns="http://www.w3.org/2000/svg" xmlns:xlink="http://www.w3.org/1999/xlink" x="0px" y="0px"
	 viewBox="0 0 1154 188" style="enable-background:new 0 0 1154 188;" xml:space="preserve">
<style type="text/css">
	.st0{fill:#FFFFFF;}
</style>
<g>
	<g>
		<path class="st0" d="M87.2,61.6c0.6,1,0.4,2.2,0.7,3.4c0.3-0.2,0.5-0.4,0.8-0.5c0.4-0.2,0.4-0.2,0.7,0.1c0.8-0.1,1.6-0.4,2.4-0.3
			c0.2-0.2,0.3-0.4,0.4-0.6c0.3-0.1,0.5,0.1,0.6,0.3c0.7,1.1,1.5,2.2,1.9,3.4c0.3,0.8,0.7,1.5,0.9,2.2c0.5,1.2,0.8,2.5,1.4,3.6
			c1.3,2.8,2.4,5.6,3.5,8.5c0.6,1.8,1.4,3.5,2.1,5.3c0.7,2,1.4,4,2.1,6c0.3,0.8,0.6,1.6,0.8,2.4c0.3,1,0.5,2,0.7,3
			c0.1,0.4,0.1,0.8,0.1,1.2c-0.3,0.1-0.4-0.1-0.5-0.3c-0.3-0.4-0.4-0.4-0.8-0.1c-0.3,0.2-0.5,0.5-0.9,0.4c-0.1,0-0.1,0.1-0.2,0.2
			c-0.2,0.2-0.5,0.5-0.7,0.7c-0.1,0.1-0.2,0.2-0.3,0.4c-0.1,0-0.3-0.1-0.5-0.1c0,0.2,0.1,0.3,0.1,0.4c-0.4-0.1-0.7-0.1-1.1-0.2
			c0-0.2,0.1-0.3,0.1-0.5c-0.7,0.2-0.9-0.4-1.2-0.8c-0.1,0.2-0.2,0.3-0.4,0.5c0.1,0.2,0.3,0.4,0.4,0.7c0.1,0.3,0.2,0.5,0.4,0.7
			c0,0-0.1,0.2-0.1,0.4c-0.2-0.2-0.4-0.3-0.5-0.5c-0.4-0.5-0.8-0.9-1.1-1.4c-1.4-2-2.3-4.2-3-6.5c0-0.1-0.1-0.2-0.2-0.4
			c-1.4,0.3-2.9,0.2-4.4,0c-0.1,0.5-0.2,1-0.4,1.4c-0.4,1.2-0.8,2.4-1.2,3.6c-0.1,0.5-0.5,0.7-1,0.8c-0.5,0.1-1,0.1-1.6,0
			c-0.4-0.1-0.8,0-1.2,0c-0.2,0-0.4-0.1-0.5-0.1c-0.8,0.1-1.1-0.4-1.3-1.1c-0.2-0.7-0.3-1.4-0.3-2.1c0-1.9,0.2-3.9,0.4-5.8
			c0.1-0.7,0.3-1.4,0.3-2.1c0.2-3.6,0.4-7.3,0.6-10.9c0.1-1.6,0.2-3.2,0.4-4.8c0.1-1.2,0.3-2.5,0.5-3.7c0.1-1,0.2-1.9,0.3-2.9
			c0.2-1.1,0.4-2.3,0.5-3.4C87.1,61.9,87.1,61.8,87.2,61.6z M92.3,86.1c0.4-0.1,0.8-0.1,1.2-0.2c-0.3-0.8-0.5-1.6-0.8-2.3
			c0,0-0.1,0-0.1,0C92.4,84.4,92.4,85.2,92.3,86.1z M99.5,99.7c0-0.5-0.3-0.7-0.5-0.6C99.1,99.3,99.3,99.5,99.5,99.7z"/>
		<path class="st0" d="M112.1,99.7c-0.5-1.2-1-2.5-1.3-3.8c-0.3-1.2-0.5-2.5-0.1-3.7c-0.4-2.1,0.3-4.1,0.7-6.1
			c0.3-1.5,0.9-3,1.3-4.5c0.6-2.1,1.2-4.3,1.9-6.4c0.5-1.4,1.1-2.8,1.7-4.2c0.5-1.1,1.1-2,2-2.8c1-1,1.8-1.1,2.9-0.5
			c0.8,0.5,1.4,1.2,1.8,2.2c0.6,1.4-0.3,2.6,0.1,4.1c0.3,1-1.1,4.3-1.3,5.3c-0.3,2.2-0.8,3.3-1.7,5.4c-1,2.4-1.2,3.8-2.3,6
			c-0.6,1.1,0.1,1.7-0.5,3c1.2,0.6,2.3,0.7,3.3,0.5c2.6-0.4,5.2-0.9,7.8-1.3c1.9-0.3,3.8-0.4,5.7,0.1c0.6,0.2,1.2,0,1.8,0
			c0.6-0.1,1.2-0.2,2,0.2c-0.7,0.4-0.8,1.4-1.6,1.7c-0.1,0-0.2,0.2-0.2,0.2c0.3,0.5-0.2,0.6-0.4,0.8c-0.4,0.4-0.8,0.8-1.3,1.3
			c0.5,0.1,0.8,0.2,1.2,0.2c-1,1.2-1.7,2.5-2.9,3.2c-1.1,0.7-2.4-0.5-3.6,0.1c0.3,0.1,0.5,0.2,0.7,0.3c-1.2,1-1.4,1-2.2-0.1
			c-0.7,1-1.6,1.1-2.6,0.7c0,0-0.1-0.1-0.1,0c-1.1,0.4-2.1-0.2-3.2,0c-0.4,0.1-0.8,0-1.1,0c-0.8-0.2-1.7-0.4-2.5-0.6
			c-0.1,0-0.3,0-0.4,0c-1.1,0.3-2.1-0.1-3.1-0.3L112.1,99.7z M133,96.1c0.8,0.1,1.2-0.1,1.6-0.6C134,95.3,133.6,95.5,133,96.1z"/>
		<path class="st0" d="M143.8,99.7c-0.5-1.2-1-2.5-1.3-3.8c-0.3-1.2-0.5-2.5-0.1-3.7c-0.4-2.1,0.3-4.1,0.7-6.1
			c0.3-1.5,0.9-3,1.3-4.5c0.6-2.1,1.2-4.3,1.9-6.4c0.5-1.4,1.1-2.8,1.7-4.2c0.5-1.1,1.1-2,2-2.8c1-1,1.8-1.1,2.9-0.5
			c0.8,0.5,1.4,1.2,1.8,2.2c0.6,1.4-0.3,2.6,0.1,4.1c0.3,1-1.1,4.3-1.3,5.3c-0.3,2.2-0.8,3.3-1.7,5.4c-1,2.4-1.2,3.8-2.3,6
			c-0.6,1.1,0.1,1.7-0.5,3c1.2,0.6,2.3,0.7,3.3,0.5c2.6-0.4,5.2-0.9,7.8-1.3c1.9-0.3,3.8-0.4,5.7,0.1c0.6,0.2,1.2,0,1.8,0
			c0.6-0.1,1.2-0.2,2,0.2c-0.7,0.4-0.8,1.4-1.6,1.7c-0.1,0-0.2,0.2-0.2,0.2c0.3,0.5-0.2,0.6-0.4,0.8c-0.4,0.4-0.8,0.8-1.3,1.3
			c0.5,0.1,0.8,0.2,1.2,0.2c-1,1.2-1.7,2.5-2.9,3.2c-1.1,0.7-2.4-0.5-3.6,0.1c0.3,0.1,0.5,0.2,0.7,0.3c-1.2,1-1.4,1-2.2-0.1
			c-0.7,1-1.6,1.1-2.6,0.7c0,0-0.1-0.1-0.1,0c-1.1,0.4-2.1-0.2-3.2,0c-0.4,0.1-0.8,0-1.1,0c-0.8-0.2-1.7-0.4-2.5-0.6
			c-0.1,0-0.3,0-0.4,0c-1.1,0.3-2.1-0.1-3.1-0.3L143.8,99.7z M164.7,96.1c0.8,0.1,1.2-0.1,1.6-0.6C165.7,95.3,165.2,95.5,164.7,96.1
			z"/>
		<path class="st0" d="M194.8,101c-0.1,0-0.2-0.1-0.3-0.1c-0.5,0.1-0.9,0-1.2-0.5c-0.1,0.2-0.2,0.4-0.3,0.6
			c-0.6-0.2-1.1-0.4-1.7-0.6c-0.1,0-0.2-0.1-0.2-0.2c-0.2-0.7-0.5-1.3-0.5-2.1c0.1-2.9,0.2-5.8,0.3-8.7c0-0.3,0-0.6,0.3-0.7
			c0-0.3-0.1-0.6-0.1-0.9c0-0.8,0.2-1.6,0.2-2.5c0-1.2,0-2.3-0.1-3.5c0-0.2,0-0.3,0-0.5c0.6-1.7,0.7-3.5,1.1-5.2
			c0.5-2.3,1.4-4.4,2.9-6.1c0.5-0.5,0.9-1.1,1.3-1.6c0.2-0.2,0.4-0.5,0.6-0.6c1-0.5,2-1.1,3.1-1.6c1.7-0.8,3.4-0.5,5.1,0.2
			c1,0.4,1.5,1.1,1.9,2c0.4,0.9,0.8,1.7,1.2,2.6c0.2,0.4,0.3,0.9,0.4,1.4c0.1,0.5-0.1,0.7-0.6,0.6c-0.4,0-0.8-0.1-1.2-0.2
			c-1.5-0.2-2.9,0.2-4.2,0.7c-2.2,0.9-2.2,0.9-3.3,2.9c-0.6,1.1-0.8,1.7-0.8,2.6c0.1,0,0.2,0.1,0.3,0.1c1.1,0,2.3,0,3.4,0
			c0.5,0,0.9,0.1,1.1,0.6c0.3,0.6,0.6,1.1,0.7,1.7c0.1,0.5,0.2,1,0.4,1.5c0.2,0.5,0.2,0.9,0,1.4c-0.1,0.1-0.2,0.3-0.3,0.3
			c-0.9,0.5-1.7,1.1-2.7,1.5c-0.9,0.4-1.8,0.5-2.7,0.8c-0.5,0.1-0.6,0.2-0.6,0.7c0,0.9,0,1.9,0.1,2.8c0,1.4,0.1,2.8,0.1,4.2
			c0,1.8,0,3.7,0,5.5c0,0.1,0,0.2-0.1,0.4c-0.1,0.5-0.4,0.7-0.9,0.6c-0.1,0-0.2,0-0.4-0.1c-0.3-0.1-0.5,0-0.7,0.3
			c-0.2,0.3-0.4,0.5-0.7,0.7c-0.3-0.4-0.5-0.8-1-0.8C194.9,101.2,194.8,101.1,194.8,101c0.1-0.2,0.4-0.2,0.2-0.7
			C194.9,100.6,194.9,100.8,194.8,101z M196.3,100.7c0,0,0-0.1,0-0.1c0,0-0.1,0-0.1,0.1c0,0,0,0.1,0,0.1
			C196.2,100.7,196.2,100.7,196.3,100.7z"/>
		<path class="st0" d="M223,101.4c0.1,0.1,0.3,0.3,0.5,0.6c-1-0.2-2,0-2.8-0.4c-0.9-0.6-1.9-1.1-2.6-1.9c-2.7-2.9-4.3-6-4.7-9.5
			c-0.1-1,0.1-2,0.2-3c0.2-2.1,0.4-4.2,0.7-6.3c0.3-2,0.9-4.1,1.3-6.1c0.2-1.1,0.6-2.1,0.7-3.2c0.2-1,0.8-1.8,1.5-2.5
			c0.7-0.7,2.1-0.6,2.6,0.2c0.6,1,0.9,2,0.7,3.1c-0.2,1-0.3,2-0.3,2.9c0.1,1.5-0.3,3-0.5,4.5c-0.4,2.3-0.4,4.6-0.5,6.9
			c0,2.1-0.3,4.3-0.3,6.4c0,0.5,0.1,1,0.4,1.5c1.4,1.8,3.5,3.1,6.2,3.7c0.6,0.1,1.3,0,1.9-0.1c2-0.6,2.9-1.8,2.9-3.5
			c0-1.3,0.1-2.5,0.3-3.8c0.3-2.5,0.6-5.1,1.2-7.6c0.3-1.5,1.1-2.9,1.7-4.4c0.3-0.7,0.7-1.4,1.1-2.3c0.2,1,0.4,1.8,0.6,2.6
			c0.1,0,0.1,0,0.2,0c0.4-1.3,0.8-2.6,1.2-4c0.1,0.4,0.2,0.7,0.2,1c0,1.7,0.8,3.3,1.7,4.9c1,1.9,1.5,3.8,1.5,5.8c0,0.5,0,1,0,1.4
			c0.1,2.7-0.3,5.4-1.6,7.9c-0.5,1-1.3,1.9-1.9,2.8C236.3,99,236.5,102.7,223,101.4z"/>
		<path class="st0" d="M260.1,73.6c-0.9,0.4-1.8,0.9-2.6,1.3c-0.6,0.4-1,0.9-1.3,1.6c-0.3,0.6-0.7,1.2-1,1.8c-0.9,1.5-1.5,3-1.7,4.7
			c-0.1,0.7,0.1,1.5,0.1,2.2c0,0.9-0.1,1.7-0.1,2.6c0,1.1,0,2.2-0.1,3.3c-0.2,1.5-0.4,3-0.7,4.5c-0.1,0.4-0.3,0.8-0.6,1.2
			c-0.6,0.9-1,1.8-1.1,2.9c-0.1,0.6-0.3,0.9-0.9,1.1c-0.2,0-0.5,0.3-0.7,0.5c-0.2,0.2-0.3,0.4-0.4,0.6c-0.5-0.1-0.7-0.4-0.9-0.7
			c-2-3.1-2.7-6.5-2.9-10.1c-0.2-2.9-0.2-5.9,0.3-8.8c0.3-1.9,0.8-3.7,1.2-5.6c0.2-0.8,0.4-1.6,0.7-2.4c0.5-1.3,1.3-2.3,2.6-2.9
			c0.9-0.4,1.5-0.3,2.2,0.4c0.9,0.9,1.3,2,1.2,3.3c0,0.1,0,0.3,0,0.4c0,0,0,0.1,0.1,0.1c0.4,0.1,0.6-0.2,0.8-0.5
			c0.5-0.7,1.1-1.4,1.6-2c1.7-2.1,3.7-3.8,6.2-5c2.1-1,4.6-0.9,6.3,1.2c1.4,1.6,2.3,3.4,3,5.3c1.4,4,1.9,8.1,1.5,12.3
			c-0.1,1.4-0.4,2.7-1.3,3.8c-0.2,0.2-0.2,0.5-0.3,0.8c-0.2,0.6-0.4,1.1-0.6,1.7c0,0.1,0,0.1-0.1,0.2c-0.2,0.2-2.3,1.5-2.7,1.6
			c-0.4,0.1-0.6-0.1-0.8-0.4c-0.4-0.8-0.8-1.7-1-2.6c-0.2-1.6-0.3-3.2-0.3-4.9c0-2.5,0-4.9-0.3-7.4c-0.1-0.8-0.4-1.5-0.6-2.3
			c-0.2-0.7-0.3-1.5-0.8-2.1c-0.5-0.5-1.1-0.9-1.3-1.6c-0.1-0.4-0.6-0.2-0.9,0c-0.1-0.2-0.2-0.4-0.2-0.4
			C261.2,73.5,260.6,73.6,260.1,73.6c0.2-0.1,0.5-0.2,0.9-0.4c-0.6-0.1-1-0.1-1.6,0.3C259.8,73.6,260,73.6,260.1,73.6z"/>
		<path class="st0" d="M301.1,88c0.2,1.7,0.3,3.4,0.4,5.1c0,0.1,0,0.2,0,0.2c0.4,0.6,0.3,1.4,0.5,2.1c0.3,1.3,0,2.5-0.2,3.7
			c-0.5,0.4-1.3-0.1-1.6,0.5c0,0-0.2,0-0.3-0.1c-0.6-0.3-1.1-0.3-1.5,0.2c-0.1,0.1-0.4,0.1-0.6,0.2c-0.2,0-0.5-0.1-0.6,0
			c-0.4,0.5-0.9,0.2-1.4,0.2c-1,0.2-1.5-0.3-1.9-1c-0.4-0.9-0.8-1.7-0.5-2.6c0.1-0.2-0.2-0.4-0.3-0.6c-0.2,0.1-0.5,0.2-0.6,0.4
			c-0.3,0.3-0.5,0.8-0.9,1.1c-0.7,0.6-1.4,1.2-1.8,2c-0.1,0.1-0.3,0.2-0.5,0.3c-0.8,0.2-1.2,0.9-2.1,1c0,0-0.1,0.1-0.1,0.3
			c0.3,0.1,0.6,0.1,0.9,0.2c0,0.1,0.1,0.1,0.1,0.2c-0.1,0-0.2,0.1-0.3,0.1c-1.3,0-2.4,0.6-3.8,0.3c-0.6-0.1-1-0.2-1.4-0.6
			c-1.5-1.5-2.8-3.2-3.7-5c-0.9-1.9-1.3-3.8-1.6-5.8c-0.2-1.5-0.3-2.9-0.3-4.4c0-1.5,0.3-3,1.3-4.3c0.2-0.3,0.4-0.5,0.5-0.8
			c0.2-1.6,1.6-2,3-2.3c2.4-0.5,4.8-0.5,7.2,0c1.1,0.2,2.2,0.5,3.4,0.8c0.4-1.1,0.3-2.1,0.2-3.2c-0.3-3.2-0.7-6.4-1-9.7
			c-0.1-0.9,0-1.9,0.1-2.8c0.1-0.7,0.2-1.4,0.2-2.1c0.1-1.1,0.5-2.1,1.4-2.9c0.9,0.3,1.2,1.4,2.5,1.1c0.4,1.3,0.9,2.5,1.2,3.7
			c0.7,2.2,1.3,4.4,1.9,6.5c0.2,0.8,0.5,1.6,0.6,2.4c0.2,1,0.3,2,0.4,2.9C300.7,77.2,301.1,87.8,301.1,88z M286,84.2
			c-0.1,0.3,0,0.6-0.2,0.7c-1,0.6-1,1.4-1.1,2.3c0,0.1,0,0.3-0.1,0.4c-0.3,0.1-0.5,0.1-0.7,0.1c-0.2,0.9-0.3,1.7,0.2,2.5
			c0.5,0.8,0.9,1.7,1.3,2.6c0.3,0.6,0.6,0.8,1.5,0.8c1.6-0.1,3.3-0.3,4.9-0.5c0.3,0,0.6-0.2,0.8-0.2c0-0.2,0.1-0.3,0.1-0.4
			c-0.1-1.5-0.2-3-0.3-4.5c0-0.1,0-0.3-0.1-0.4c-1-1.2-1.9-2.5-3.8-2.4C288.3,84.3,287.3,83.8,286,84.2z M285.9,98.2
			c0-0.1-0.1-0.1-0.1-0.2c-0.2,0.1-0.5,0.2-0.7,0.3c-0.1,0,0,0.2-0.1,0.4C285.4,98.5,285.6,98.3,285.9,98.2z M289.9,81.7
			c-1.9-0.1-3.1,0.6-3.7,2c0.4-0.2,0.8-0.2,1-0.5c0.5-0.6,1.1-0.3,1.7-0.2c0.3,0,0.5,0.3,0.7,0.4c0.5,0.2,0.9,0.3,1.5,0
			c-0.4-0.7-1.2-0.8-2-1.2C289.4,82,289.6,81.9,289.9,81.7z M290.3,80.9c-0.1,0-0.1-0.1-0.2-0.1c-0.1,0-0.1,0.1-0.2,0.1
			c0.1,0,0.1,0.1,0.2,0.1C290.3,81,290.3,81,290.3,80.9z M291.8,84.9c0.1-0.3,0.6-0.6,0.3-0.9c-0.2-0.2-0.6-0.2-1-0.3
			C291.4,84.2,291.6,84.6,291.8,84.9c0.3,0,0.6,0.1,0.9,0.1c0,0,0-0.1,0-0.1C292.4,84.9,292.1,84.9,291.8,84.9z"/>
		<path class="st0" d="M314.3,86.4c0.2,2.7-0.1,5.3-0.5,8c-0.7,4.1-1.3,8.2-1.9,12.2c-0.2,1.4-0.4,2.8-0.8,4.1
			c-0.1-1.1-0.4-2.2-0.3-3.3c0-1.1-0.1-2-0.9-3c0.1,1.2,0.2,2.2,0.3,3.3c-0.1,0-0.1,0-0.2,0.1c-0.1-0.3-0.2-0.5-0.2-0.8
			c-0.3-1.6-0.7-3.1-1.2-4.6c-0.5-1.8-0.8-3.6-1.1-5.4c-0.3-2.1-0.6-4.2-0.8-6.4c-0.2-2.1-0.2-4.3-0.3-6.4c0-0.9,0.1-1.8,0.8-2.4
			c0.2-0.2,0.2-0.5,0.3-0.7c0.2-0.3,0.3-0.6,0.5-0.9c0.1-0.2,0.3-0.4,0.4-0.6c0.5-1.3,2-1.7,2.8-0.6c0.1,0.1,0.2,0.3,0.3,0.4
			c0.6,1.2,1.3,2.4,1.9,3.6C314.1,84,314.3,85.2,314.3,86.4z M316.6,68.3c0,0.5,0,0.9,0,1.4c0,1.1,0,2.3-0.4,3.3
			c-0.2,0.4-0.3,0.9-0.6,1.3c-0.5,0.9-1.1,1.2-2.1,1c-1.6-0.2-2.8-1.1-3.8-2.3c-0.5-0.6-0.8-1.2-0.5-2c0.1-0.4,0.2-0.8,0.2-1.2
			c0.1-0.9,0.4-1.7,0.9-2.5c0.1-0.1,0.1-0.2,0.1-0.4c0-1,0-1,0.8-1.3c0.1-0.6,0.1-1.1,0.2-1.6c0.9,0.5,1.8,1,2.6,1.4
			c0.7,0.4,1.4,0.9,2.2,1.4C316.6,67.2,316.7,67.7,316.6,68.3z"/>
		<path class="st0" d="M336,73.6c-0.9,0.4-1.8,0.9-2.6,1.3c-0.6,0.4-1,0.9-1.3,1.6c-0.3,0.6-0.7,1.2-1,1.8c-0.9,1.5-1.5,3-1.7,4.7
			c-0.1,0.7,0.1,1.5,0.1,2.2c0,0.9-0.1,1.7-0.1,2.6c0,1.1,0,2.2-0.1,3.3c-0.2,1.5-0.4,3-0.7,4.5c-0.1,0.4-0.3,0.8-0.6,1.2
			c-0.6,0.9-1,1.8-1.1,2.9c-0.1,0.6-0.3,0.9-0.9,1.1c-0.2,0-0.5,0.3-0.7,0.5c-0.2,0.2-0.3,0.4-0.4,0.6c-0.5-0.1-0.7-0.4-0.9-0.7
			c-2-3.1-2.7-6.5-2.9-10.1c-0.2-2.9-0.2-5.9,0.3-8.8c0.3-1.9,0.8-3.7,1.2-5.6c0.2-0.8,0.4-1.6,0.7-2.4c0.5-1.3,1.3-2.3,2.6-2.9
			c0.9-0.4,1.5-0.3,2.2,0.4c0.9,0.9,1.3,2,1.2,3.3c0,0.1,0,0.3,0,0.4c0,0,0,0.1,0.1,0.1c0.4,0.1,0.6-0.2,0.8-0.5
			c0.5-0.7,1.1-1.4,1.6-2c1.7-2.1,3.7-3.8,6.2-5c2.1-1,4.6-0.9,6.3,1.2c1.4,1.6,2.3,3.4,3,5.3c1.4,4,1.9,8.1,1.5,12.3
			c-0.1,1.4-0.4,2.7-1.3,3.8c-0.2,0.2-0.2,0.5-0.3,0.8c-0.2,0.6-0.4,1.1-0.6,1.7c0,0.1,0,0.1-0.1,0.2c-0.2,0.2-2.3,1.5-2.7,1.6
			c-0.4,0.1-0.6-0.1-0.8-0.4c-0.4-0.8-0.8-1.7-1-2.6c-0.2-1.6-0.3-3.2-0.3-4.9c0-2.5,0-4.9-0.3-7.4c-0.1-0.8-0.4-1.5-0.6-2.3
			c-0.2-0.7-0.3-1.5-0.8-2.1c-0.5-0.5-1.1-0.9-1.3-1.6c-0.1-0.4-0.6-0.2-0.9,0c-0.1-0.2-0.2-0.4-0.2-0.4
			C337.1,73.5,336.5,73.6,336,73.6c0.2-0.1,0.5-0.2,0.9-0.4c-0.6-0.1-1-0.1-1.6,0.3C335.7,73.6,335.9,73.6,336,73.6z"/>
		<path class="st0" d="M354.8,114.7c0.3-0.1,0.4-0.1,0.7-0.2c-0.2-0.9-1.1-1.3-1.3-2.1c1.4,1,2.8,2,4.4,2.9c-0.2-0.9-0.2-0.9-1-1.2
			c-0.1-0.7-0.3-1.3-1.1-1.5c-0.1,0-0.2-0.1-0.2-0.2c-1-1.1-2-2.2-3.1-3.4c0.5,0,0.8,0.2,1.1,0.4c1.2,0.6,2.4,1.3,3.6,1.9
			c1.3,0.6,2.6,0.3,3.5-0.8c1.1-1.2,1.9-2.6,2.5-4c0.8-1.8,1.5-3.7,2.2-5.6c0.3-0.9,0.6-1.9,0.6-3c-0.9,0.1-1.7,0.1-2.5,0.2
			c-1.8,0.2-3.5-0.1-5.1-0.9c-1-0.5-1.8-1.1-2.3-2.1c-0.3-0.5-0.7-0.9-1-1.4c-1.3-2.1-1.5-4.3-0.6-6.6c1-2.7,3-4.7,5.4-6.2
			c3.4-2.1,7.3-2.4,11.2-2.2c1,0,2,0.1,3,0.3c1.9,0.3,2.9,1,3.9,2.7c-0.4,0.3-0.4,0.3-1.6,0.6c0.1,0.7,0.1,1.4,0.2,2.1
			c0.3,1.8,0.6,3.5,0.9,5.3c0.3,1.9,0.3,3.8,0.1,5.7c-0.2,2.5-0.8,5-1.8,7.3c-0.9,2.1-1.9,4.1-2.9,6.1c-1,1.9-2.1,3.8-3.5,5.5
			c-1.7,2.2-3.8,3.5-6.5,3.8c-0.7,0.1-1.4-0.1-2.1-0.2c-0.6-0.1-1.1-0.3-1.7-0.4C357.9,117.2,356.3,116.1,354.8,114.7z M367.6,86.3
			c-0.3,0.4-0.6,0.6-0.8,0.9c-0.4,0.5-0.8,1.1-1.3,1.7c-0.7,0.8-1,1.8-1.3,2.8c-0.1,0.4,0,0.9,0.1,1.3c0.1,0.4,0.4,0.7,0.8,0.7
			c0.6,0.1,1.2,0.1,1.9-0.1c0.7-0.3,0.9-0.7,0.9-1.3c0-1.7-0.1-3.3-0.1-5C367.7,87,367.7,86.8,367.6,86.3z"/>
		<path class="st0" d="M407.6,86.4c0.2,2.7-0.1,5.3-0.5,8c-0.7,4.1-1.3,8.2-1.9,12.2c-0.2,1.4-0.4,2.8-0.8,4.1
			c-0.1-1.1-0.4-2.2-0.3-3.3c0-1.1-0.1-2-0.9-3c0.1,1.2,0.2,2.2,0.3,3.3c-0.1,0-0.1,0-0.2,0.1c-0.1-0.3-0.2-0.5-0.2-0.8
			c-0.3-1.6-0.7-3.1-1.2-4.6c-0.5-1.8-0.8-3.6-1.1-5.4c-0.3-2.1-0.6-4.2-0.8-6.4c-0.2-2.1-0.2-4.3-0.3-6.4c0-0.9,0.1-1.8,0.8-2.4
			c0.2-0.2,0.2-0.5,0.3-0.7c0.2-0.3,0.3-0.6,0.5-0.9c0.1-0.2,0.3-0.4,0.4-0.6c0.5-1.3,2-1.7,2.8-0.6c0.1,0.1,0.2,0.3,0.3,0.4
			c0.6,1.2,1.3,2.4,1.9,3.6C407.3,84,407.5,85.2,407.6,86.4z M409.9,68.3c0,0.5,0,0.9,0,1.4c0,1.1,0,2.3-0.4,3.3
			c-0.2,0.4-0.3,0.9-0.6,1.3c-0.5,0.9-1.1,1.2-2.1,1c-1.6-0.2-2.8-1.1-3.8-2.3c-0.5-0.6-0.8-1.2-0.5-2c0.1-0.4,0.2-0.8,0.2-1.2
			c0.1-0.9,0.4-1.7,0.9-2.5c0.1-0.1,0.1-0.2,0.1-0.4c0-1,0-1,0.8-1.3c0.1-0.6,0.1-1.1,0.2-1.6c0.9,0.5,1.8,1,2.6,1.4
			c0.7,0.4,1.4,0.9,2.2,1.4C409.8,67.2,409.9,67.7,409.9,68.3z"/>
		<path class="st0" d="M433.5,79.8c0.6,0.2,1,0.5,1.5,0.7c2,0.7,4,1.3,6,2c1.8,0.6,3.4,1.6,4.7,2.9c1.5,1.4,2.1,3.3,2.2,5.3
			c0.1,1.9-0.6,3.5-1.6,5c-1.8,2.7-4.3,4.7-7.3,5.9c-0.4,0.2-0.8,0.3-1.2,0.3c-4.9,0-9.8,0-14.7,0c-0.5,0-0.9-0.1-1.2-0.7
			c-0.2-0.4-0.6-0.7-1-0.9c-1.7-0.6-3.5-1.1-5.3-1.1c-0.4,0-0.8,0-1.3-0.2c0.8-0.2,1.6-0.4,2.4-0.6c0.8-0.2,1.5-0.5,2.3-0.9
			c1.3-0.5,2.4-1.2,3.8-1.4c0.4-0.1,0.7-0.2,1.1-0.4c0.4-0.1,0.9-0.3,1.3-0.4c1.7-0.3,3.3-0.8,5-1.2c1.5-0.3,2.9-1.1,4.1-2.1
			c0.5-0.4,1-0.9,1.1-1.6c0.2-1.1-0.3-1.9-1.1-2.6c-1.4-1.2-3-1.9-4.7-2.6c-0.6-0.2-1.1-0.5-1.6-0.8c-0.7-0.4-1.5-0.9-2.2-1.4
			c-0.9-0.7-1.6-1.5-1.6-2.8c0-1.8,0.9-3.1,1.9-4.3c1.9-2.4,4.4-3.9,7.2-5.2c1.9-0.9,3.9-1.5,6-1.4c3,0.1,5.9,0.5,8.5,2.2
			c1,0.6,1.5,1.6,1.8,2.7c0.2,0.6-0.1,1-0.7,1.1c-0.5,0.1-1,0-1.5-0.1c-0.6-0.1-1.1-0.6-1.6,0.1c-1-0.1-2.1,0-2.9-0.9
			c-0.4-0.5-0.9-0.6-1.5-0.6C437.8,74.4,435.3,76.5,433.5,79.8z"/>
		<path class="st0" d="M472.5,99.7c-0.5-1.2-1-2.5-1.3-3.8c-0.3-1.2-0.5-2.5-0.1-3.7c-0.4-2.1,0.3-4.1,0.7-6.1
			c0.3-1.5,0.9-3,1.3-4.5c0.6-2.1,1.2-4.3,1.9-6.4c0.5-1.4,1.1-2.8,1.7-4.2c0.5-1.1,1.1-2,2-2.8c1-1,1.8-1.1,2.9-0.5
			c0.8,0.5,1.4,1.2,1.8,2.2c0.6,1.4-0.3,2.6,0.1,4.1c0.3,1-1.1,4.3-1.3,5.3c-0.3,2.2-0.8,3.3-1.7,5.4c-1,2.4-1.2,3.8-2.3,6
			c-0.6,1.1,0.1,1.7-0.5,3c1.2,0.6,2.3,0.7,3.3,0.5c2.6-0.4,5.2-0.9,7.8-1.3c1.9-0.3,3.8-0.4,5.7,0.1c0.6,0.2,1.2,0,1.8,0
			c0.6-0.1,1.2-0.2,2,0.2c-0.7,0.4-0.8,1.4-1.6,1.7c-0.1,0-0.2,0.2-0.2,0.2c0.3,0.5-0.2,0.6-0.4,0.8c-0.4,0.4-0.8,0.8-1.3,1.3
			c0.5,0.1,0.8,0.2,1.2,0.2c-1,1.2-1.7,2.5-2.9,3.2c-1.1,0.7-2.4-0.5-3.6,0.1c0.3,0.1,0.5,0.2,0.7,0.3c-1.2,1-1.4,1-2.2-0.1
			c-0.7,1-1.6,1.1-2.6,0.7c0,0-0.1-0.1-0.1,0c-1.1,0.4-2.1-0.2-3.2,0c-0.4,0.1-0.8,0-1.1,0c-0.8-0.2-1.7-0.4-2.5-0.6
			c-0.1,0-0.3,0-0.4,0c-1.1,0.3-2.1-0.1-3.1-0.3L472.5,99.7z M493.4,96.1c0.8,0.1,1.2-0.1,1.6-0.6C494.4,95.3,493.9,95.5,493.4,96.1
			z"/>
		<path class="st0" d="M535.5,89.1c-0.6,2.8-1.9,5.3-4.3,7c-1.5,1-3.2,1.8-5.2,1.8c-0.4,0-0.8,0.1-1.1,0.3c-1.2,0.9-2.6,1.3-3.9,1.9
			c-0.6,0.3-1.2,0.5-1.8,0.9c-1.4,0.8-2.9,1-4.5,1c-2.1,0.1-4.1-0.3-6-1.2c-2.2-1-3.7-2.8-4.7-5c-0.7-1.5-1.1-3.1-1.2-4.8
			c-0.1-1.7-0.1-3.3-0.2-5c0.2-2.9,1.2-5.6,2.6-8.1c0.5-1,1.3-1.7,2.4-2c0.3-0.1,0.6-0.3,0.9-0.5c2.2-2.2,5-3.4,8.1-4
			c1.6-0.3,3.3-0.4,5-0.4c1.7,0,3.2,0.5,4.7,1.4c2.6,1.7,4.7,3.9,6.8,6.2C535.6,81.7,536.2,85.2,535.5,89.1z M508.3,85.6
			c0.1-0.4,0.2-0.8,0.2-1.1C508,84.8,508,84.9,508.3,85.6z M509.6,83c0.3-0.9,0.4-1.8,0.6-2.9c-0.5,0.6-0.8,0.9-1.1,1.3
			c-0.3,0.3-0.5,0.7-0.3,1.2c0.1,0.2,0,0.5-0.1,0.8c-0.1,0.4-0.1,0.8-0.2,1.2c0,0,0,0,0,0c0.1,0.4,0.2,0.7,0.2,1.1
			c0.1,0.6,0.1,1.1,0.1,1.7c0.1,0,0.2,0,0.3,0c0-0.5,0.1-0.9,0.1-1.3C509.1,84.9,509.3,84,509.6,83z M524.4,82.8
			c-1.6-1.8-3.3-3.2-5.4-4.4c-1.6-0.9-3.3-1.5-5.2-0.8c-0.3,0.1-0.6,0.1-0.9,0.1c-0.9,0.1-2,1.1-2.2,1.9c-0.2,1-0.5,2.1-0.8,3.1
			c-0.4,1.6-0.4,3.2-0.2,5c0.3-0.9,1.3-0.2,1.5-1c0.1,0.1,0.2,0.1,0.2,0.2c-0.1,0.5-0.2,1-0.2,1.5c0,0.3-0.1,0.8,0,0.9
			c0.7,0.7,0.8,1.6,1.1,2.4c0.8,1.8,2.1,3.2,3.8,4.2c0.9,0.5,1.8,0.6,2.6-0.1c0.3-0.2,0.6-0.4,0.9-0.5c1-0.2,1.7-0.7,2.3-1.5
			c1.2-1.4,2.5-2.7,3.2-4.4C526.4,87,526.2,84.8,524.4,82.8z M511.9,80.8c-0.2,0.6-0.3,1.2-0.5,1.9C511,81.6,511.1,81.4,511.9,80.8z
			 M511.5,83.9c0,0,0.1,0,0.1,0c0,0.2-0.1,0.4-0.1,0.8C511.5,84.4,511.5,84.2,511.5,83.9z M512.4,79.9c0.1,0,0.2,0.1,0.2,0.1
			c-0.1,0.3-0.2,0.5-0.3,0.8c-0.1,0-0.1,0-0.2,0c0-0.1-0.1-0.2,0-0.3C512.2,80.3,512.3,80.1,512.4,79.9z"/>
		<path class="st0" d="M547,74.1c3-2.1,6.3-2.5,9.7-1.3c1.4,0.5,2.6,1.3,3.6,2.5c0.4,0.6,0.9,1.1,1.4,1.6c0.1,0.2,0.2,0.4,0.4,0.6
			c0.2,0.2,0.3,0.5,0.5,0.7c0.5,0.5-0.2,1.6-0.5,1.5c-0.6-0.2-1.2-0.4-1.8-0.6c-0.1,0-0.2,0-0.3,0.1l0,0c-0.1,0-0.3,0-0.4-0.1
			c-0.7-0.7-1.6-0.8-2.5-1.1c-0.3-0.1-0.6-0.1-0.9-0.2c-0.4,0-1.5,0.2-1.6,0.2c-1,0.4-1.7,1.1-2.6,1.6c-0.5,0.3-1,0.6-1.5,1
			c-0.2,0.1-0.3,0.3-0.5,0.5c0,0-1.1,1.9-1.2,2.5c-0.6,2.4-1.2,6-1.1,7c0.1,0.9,0.2,1.7,0.3,2.6c0,0.3,0.2,0.6,0.3,0.9
			c0,0.1,0.6,1,1.1,1.2c1,0.3,2.1,0.3,3.2,0.2c0.4,0,0.7-0.3,1-0.5c1-0.9,2-1.8,2.9-2.7c0.6-0.6,1-0.8,1.8-1.1c0,0.2,0,0.3,0,0.5
			c-0.6,0.1-0.6,0.1-0.7,0.7c0,0.1-0.1,0.3-0.2,0.4c-0.4,0.4-0.7,0.8-1.1,1.2c-0.1,0.1-0.1,0.2-0.1,0.4c0.3-0.1,0.4-0.2,0.6-0.3
			c0.3-0.2,0.6-0.4,0.9-0.5c0.3-0.1,0.4-0.3,0.2-0.6c0.2-0.1,0.4-0.1,0.6-0.2c-0.1-0.1-0.1-0.2-0.2-0.3c0.8-0.3,1.7-0.7,2.5-1
			c0.3,0.4-0.6,0.6,0,1c0.3-0.3,0.6-0.7,0.8-1c0-0.1,0.1-0.1,0.1-0.2c-0.1-0.6,0.4-0.7,0.7-0.8c0.4-0.2,0.9,0,1.3,0.2
			c0.2,0.1,0.2,1,0,1.3c-0.8,0.9-1.5,1.8-2.4,2.6c-0.6,0.6-0.9,1.1-0.7,1.9c0.1,0.5-0.3,0.7-0.6,1c-0.4,0.2-0.7,0.5-1.1,0.7
			c0.5,0.8-0.3,0.9-0.6,1.3c0,0.1,0.1,0.2,0.2,0.4c0,0-0.1,0.1-0.2,0.1c-0.7,0.3-1.4,0.6-2.1,0.9c-0.5,0.2-1.1,0.4-1.6,0.6
			c-0.7,0.3-1.4,0.6-2.5,0.6c-4.8-0.6-7.4-2.9-7.8-3.1c-1.2-0.7-2.1-1.7-3-2.8c-0.4-0.5-0.5-1.2-0.6-1.8c-0.1-0.3-0.2-1.7-0.2-2
			c0-0.2-0.1-0.4,0-0.6c0.5-0.9,0.3-1.9,0.5-2.8c0-0.2-0.1-0.4-0.3-0.7c-0.4,0.7-0.1,1.4-0.2,2c-0.3-0.8-0.2-1.6-0.2-2.4
			c0-0.5-0.2-0.9-0.2-1.4c0.1-0.7,0.1-1.5,0.4-2.2c0.4-1.1,1-2.1,1.4-3.2c0.3-0.9,0.9-1.8,1.4-2.7c0.7-1.2,2.5-2.7,2.4-2.8
			C545.7,75.5,546.5,74.4,547,74.1z"/>
		<path class="st0" d="M576.9,73.2c0.2-0.1,0.5-0.2,0.8-0.2c1.7-0.5,3.3-1,5-1.4c2.7-0.6,5.2,0.2,7.5,1.5c1.4,0.7,2.8,1.6,4.1,2.4
			c0.6,0.4,1.1,0.8,1.6,1.3c0.9,0.8,1.1,1.8,0.9,3c-0.3,1.6-0.6,3.3-1,4.9c-0.5,2.2-0.3,4.4,0.2,6.6c0.3,1.1,0.6,2.3,0.8,3.5
			c0.2,1.1,0.2,2.3,0.3,3.4c0.1,0.7,0.2,1.4,0.3,2.2c0,0.5,0.1,1,0.1,1.7c-1.2-0.5-2.2-0.1-3.2-0.1c-1.3,0-2.6-0.3-4-0.4
			c-1.3-0.1-2.3-0.8-3.3-1.6c-1.4-1.2-2-2.8-2.2-4.5c0-0.3-0.1-0.5-0.1-0.7c0-0.1-0.1-0.1-0.1-0.2c-0.5,0.2-1.1,0.3-1.6,0.6
			c-1.6,0.8-3.4,1.2-5.1,1.5c-1.8,0.4-3.5,0.3-5.2-0.5c-2.2-1.2-3.6-3-4.1-5.4c-0.3-1.5-0.4-3.1-0.2-4.7c0-0.4,0.2-0.7,0.3-1.1
			c0.5-1.4,1-2.9,1.5-4.3c0.5-1.5,1.4-2.7,2.3-4c0.4-0.6,0.9-1.1,1.3-1.6C574.1,74.7,576.7,72.9,576.9,73.2z M585.9,83.9
			c0.5-0.2,0.8-0.2,1.1-0.4c1.1-0.8,1.7-1.9,1.9-3.2c0.1-0.6,0-1.3-0.3-1.9c-0.4-1-2.7-2-3.8-1.9c-2.8,0.5-5,1.7-6.4,4.3
			c-1.2,2.3-1.8,4.8-1.7,7.4c0,0.5,0.1,1,0.4,1.5c0.3-0.1,0.5-0.2,0.7-0.4c1-0.8,1.9-1.7,2.9-2.5c0.6-0.6,1.1-1.2,1.7-1.8
			c0.2-0.2,0.5-0.5,0.9-0.6c-0.2,0.5-0.9,0.7-0.7,1.4c0.5-0.1,0.8-0.4,1.1-0.8c0.1-0.2,0.3-0.5,0.5-0.6c0.5-0.2,0.7-0.6,1.1-0.9
			c0.2-0.2,0.4-0.6,0.9-0.4C586.1,83.3,586,83.5,585.9,83.9z"/>
		<path class="st0" d="M603.4,99.7c-0.5-1.2-1-2.5-1.3-3.8c-0.3-1.2-0.5-2.5-0.1-3.7c-0.4-2.1,0.3-4.1,0.7-6.1
			c0.3-1.5,0.9-3,1.3-4.5c0.6-2.1,1.2-4.3,1.9-6.4c0.5-1.4,1.1-2.8,1.7-4.2c0.5-1.1,1.1-2,1.9-2.8c1-1,1.8-1.1,2.9-0.5
			c0.8,0.5,1.4,1.2,1.8,2.2c0.6,1.4-0.3,2.6,0.1,4.1c0.3,1-1.1,4.3-1.3,5.3c-0.3,2.2-0.8,3.3-1.7,5.4c-1,2.4-1.2,3.8-2.3,6
			c-0.6,1.1,0.1,1.7-0.5,3c1.2,0.6,2.3,0.7,3.3,0.5c2.6-0.4,5.2-0.9,7.8-1.3c1.9-0.3,3.8-0.4,5.7,0.1c0.6,0.2,1.2,0,1.8,0
			c0.6-0.1,1.2-0.2,2,0.2c-0.7,0.4-0.8,1.4-1.6,1.7c-0.1,0-0.2,0.2-0.2,0.2c0.3,0.5-0.2,0.6-0.4,0.8c-0.4,0.4-0.8,0.8-1.3,1.3
			c0.5,0.1,0.8,0.2,1.2,0.2c-1,1.2-1.7,2.5-2.9,3.2c-1.1,0.7-2.4-0.5-3.6,0.1c0.3,0.1,0.5,0.2,0.7,0.3c-1.2,1-1.4,1-2.2-0.1
			c-0.7,1-1.6,1.1-2.6,0.7c0,0-0.1-0.1-0.1,0c-1.1,0.4-2.1-0.2-3.2,0c-0.4,0.1-0.8,0-1.1,0c-0.8-0.2-1.7-0.4-2.5-0.6
			c-0.1,0-0.3,0-0.4,0c-1.1,0.3-2.1-0.1-3.1-0.3L603.4,99.7z M624.3,96.1c0.8,0.1,1.2-0.1,1.6-0.6C625.3,95.3,624.9,95.5,624.3,96.1
			z"/>
		<path class="st0" d="M641.3,86.4c0.2,2.7-0.1,5.3-0.5,8c-0.7,4.1-1.3,8.2-1.9,12.2c-0.2,1.4-0.4,2.8-0.8,4.1
			c-0.1-1.1-0.4-2.2-0.3-3.3c0-1.1-0.1-2-0.9-3c0.1,1.2,0.2,2.2,0.3,3.3c-0.1,0-0.1,0-0.2,0.1c-0.1-0.3-0.2-0.5-0.2-0.8
			c-0.3-1.6-0.7-3.1-1.2-4.6c-0.5-1.8-0.8-3.6-1.1-5.4c-0.3-2.1-0.6-4.2-0.8-6.4c-0.2-2.1-0.2-4.3-0.3-6.4c0-0.9,0.1-1.8,0.8-2.4
			c0.2-0.2,0.2-0.5,0.3-0.7c0.2-0.3,0.3-0.6,0.5-0.9c0.1-0.2,0.3-0.4,0.4-0.6c0.5-1.3,2-1.7,2.8-0.6c0.1,0.1,0.2,0.3,0.3,0.4
			c0.6,1.2,1.3,2.4,1.9,3.6C641,84,641.2,85.2,641.3,86.4z M643.6,68.3c0,0.5,0,0.9,0,1.4c0,1.1,0,2.3-0.4,3.3
			c-0.2,0.4-0.3,0.9-0.6,1.3c-0.5,0.9-1.1,1.2-2.1,1c-1.6-0.2-2.8-1.1-3.8-2.3c-0.5-0.6-0.8-1.2-0.5-2c0.1-0.4,0.2-0.8,0.2-1.2
			c0.1-0.9,0.4-1.7,0.9-2.5c0.1-0.1,0.1-0.2,0.1-0.4c0-1,0-1,0.8-1.3c0.1-0.6,0.1-1.1,0.2-1.6c0.9,0.5,1.8,1,2.6,1.4
			c0.7,0.4,1.4,0.9,2.2,1.4C643.6,67.2,643.6,67.7,643.6,68.3z"/>
		<path class="st0" d="M667.2,79.8c0.6,0.2,1,0.5,1.5,0.7c2,0.7,4,1.3,6,2c1.8,0.6,3.4,1.6,4.7,2.9c1.5,1.4,2.1,3.3,2.2,5.3
			c0.1,1.9-0.6,3.5-1.6,5c-1.8,2.7-4.3,4.7-7.3,5.9c-0.4,0.2-0.8,0.3-1.2,0.3c-4.9,0-9.8,0-14.7,0c-0.5,0-0.9-0.1-1.2-0.7
			c-0.2-0.4-0.6-0.7-1-0.9c-1.7-0.6-3.5-1.1-5.3-1.1c-0.4,0-0.8,0-1.3-0.2c0.8-0.2,1.6-0.4,2.4-0.6c0.8-0.2,1.5-0.5,2.3-0.9
			c1.3-0.5,2.4-1.2,3.8-1.4c0.4-0.1,0.7-0.2,1.1-0.4c0.4-0.1,0.9-0.3,1.3-0.4c1.7-0.3,3.3-0.8,5-1.2c1.5-0.3,2.9-1.1,4.1-2.1
			c0.5-0.4,1-0.9,1.1-1.6c0.2-1.1-0.3-1.9-1.1-2.6c-1.4-1.2-3-1.9-4.7-2.6c-0.6-0.2-1.1-0.5-1.6-0.8c-0.7-0.4-1.5-0.9-2.2-1.4
			c-0.9-0.7-1.6-1.5-1.6-2.8c0-1.8,0.9-3.1,1.9-4.3c1.9-2.4,4.4-3.9,7.2-5.2c1.9-0.9,3.9-1.5,6-1.4c3,0.1,5.9,0.5,8.5,2.2
			c1,0.6,1.5,1.6,1.8,2.7c0.2,0.6-0.1,1-0.7,1.1c-0.5,0.1-1,0-1.5-0.1c-0.6-0.1-1.1-0.6-1.6,0.1c-1-0.1-2.1,0-2.9-0.9
			c-0.4-0.5-0.9-0.6-1.5-0.6C671.5,74.4,669,76.5,667.2,79.8z"/>
		<path class="st0" d="M710.5,76.4c-0.5-0.5-0.9-1.2-1.8-1.3c0.3,0.4,0.5,0.8,0.7,1.1c0.7,0.8,0.9,1.8,1,2.8c0,0.7-0.1,1.4,0,2.1
			c0.1,0.8,0.2,1.6-0.6,2.2c-0.6,1.7-2,2.8-3.4,3.7c-0.9,0.5-1.8,1.1-2.7,1.6c-0.2,0.1-0.4,0.3-0.6,0.5c-0.8,1.1-2,1.8-3.1,2.6
			c-0.2,0.2-0.5,0.2-0.8,0.3c-0.7,0.2-0.8,0.4-0.6,1c0.3,1.3,1,2.3,1.9,3.1c1.5,1.3,3.3,1.9,5.2,2.2c2.1,0.4,4.1,1,6.2,2
			c-0.5-0.1-1-0.1-1.3-0.2c-0.4-0.1-0.8-0.3-1.2-0.4c-0.6-0.1-1.1-0.2-1.7-0.3c-0.5,0.9-1.3-0.1-2,0.2c0.1,0.1,0.1,0.1,0.2,0.1
			c0.2,0,0.6,0,0.5,0.4c-0.1,0.4-0.3,0.2-0.6,0.1c-0.4-0.1-0.7-0.2-1.1-0.3c-0.2,0-0.5-0.1-0.5,0.3c0,0.1-0.4,0.3-0.6,0.3
			c-1.1,0.1-2.1,0.4-3.1,0.8c-0.8,0.3-1.7,0.4-2.5,0.3c-1-0.2-2-0.3-3-0.6c-1.2-0.4-2.1-1.1-3-2c-2.2-2.2-3.2-5.1-3.6-8.1
			c-0.1-0.8-0.1-1.7-0.2-2.5c-0.2-1.6,0-3.2,0.5-4.7c1.1-3.7,2.9-7,6.3-9.2c1.7-1.1,3.5-2.1,5.5-2.5c1.9-0.3,3.7-0.3,5.5,0.4
			c1,0.4,2,0.7,2.9,1.2c0.8,0.4,1.4,1.1,2,1.7C710.9,75.9,710.9,76.2,710.5,76.4z M697,86.6c2.3-0.2,3.8-1.4,5.2-2.9
			c0.8-0.9,1.2-1.9,1.1-3.1c-0.1-1.6-0.5-1.8-1.9-1.1c-0.1,0-0.2,0.1-0.2,0.2c-2,1.5-3.3,3.4-4,5.8C697.1,85.8,697.1,86.2,697,86.6z
			"/>
		<path class="st0" d="M740,88c0.2,1.7,0.3,3.4,0.4,5.1c0,0.1,0,0.2,0,0.2c0.4,0.6,0.3,1.4,0.5,2.1c0.3,1.3,0,2.5-0.2,3.7
			c-0.5,0.4-1.3-0.1-1.6,0.5c0,0-0.2,0-0.3-0.1c-0.6-0.3-1.1-0.3-1.5,0.2c-0.1,0.1-0.4,0.1-0.6,0.2c-0.2,0-0.5-0.1-0.6,0
			c-0.4,0.5-0.9,0.2-1.4,0.2c-1,0.2-1.5-0.3-1.9-1c-0.4-0.9-0.8-1.7-0.5-2.6c0.1-0.2-0.2-0.4-0.3-0.6c-0.2,0.1-0.5,0.2-0.6,0.4
			c-0.3,0.3-0.5,0.8-0.9,1.1c-0.7,0.6-1.4,1.2-1.8,2c-0.1,0.1-0.3,0.2-0.5,0.3c-0.8,0.2-1.2,0.9-2.1,1c0,0-0.1,0.1-0.1,0.3
			c0.3,0.1,0.6,0.1,0.9,0.2c0,0.1,0.1,0.1,0.1,0.2c-0.1,0-0.2,0.1-0.3,0.1c-1.3,0-2.4,0.6-3.8,0.3c-0.6-0.1-1-0.2-1.4-0.6
			c-1.5-1.5-2.8-3.2-3.7-5c-0.9-1.9-1.3-3.8-1.6-5.8c-0.2-1.5-0.3-2.9-0.3-4.4c0-1.5,0.3-3,1.3-4.3c0.2-0.3,0.4-0.5,0.5-0.8
			c0.2-1.6,1.6-2,3-2.3c2.4-0.5,4.8-0.5,7.2,0c1.1,0.2,2.2,0.5,3.4,0.8c0.4-1.1,0.3-2.1,0.2-3.2c-0.3-3.2-0.7-6.4-1-9.7
			c-0.1-0.9,0-1.9,0.1-2.8c0.1-0.7,0.2-1.4,0.2-2.1c0.1-1.1,0.5-2.1,1.4-2.9c0.9,0.3,1.2,1.4,2.5,1.1c0.4,1.3,0.9,2.5,1.2,3.7
			c0.7,2.2,1.3,4.4,1.9,6.5c0.2,0.8,0.5,1.6,0.6,2.4c0.2,1,0.3,2,0.4,2.9C739.6,77.2,740,87.8,740,88z M724.9,84.2
			c-0.1,0.3,0,0.6-0.2,0.7c-1,0.6-1,1.4-1.1,2.3c0,0.1,0,0.3-0.1,0.4c-0.3,0.1-0.5,0.1-0.7,0.1c-0.2,0.9-0.3,1.7,0.2,2.5
			c0.5,0.8,0.9,1.7,1.3,2.6c0.3,0.6,0.6,0.8,1.5,0.8c1.6-0.1,3.3-0.3,4.9-0.5c0.3,0,0.6-0.2,0.8-0.2c0-0.2,0.1-0.3,0.1-0.4
			c-0.1-1.5-0.2-3-0.3-4.5c0-0.1,0-0.3-0.1-0.4c-1-1.2-1.9-2.5-3.8-2.4C727.2,84.3,726.2,83.8,724.9,84.2z M724.8,98.2
			c0-0.1-0.1-0.1-0.1-0.2c-0.2,0.1-0.5,0.2-0.7,0.3c-0.1,0,0,0.2-0.1,0.4C724.3,98.5,724.5,98.3,724.8,98.2z M728.8,81.7
			c-1.9-0.1-3.1,0.6-3.7,2c0.4-0.2,0.8-0.2,1-0.5c0.5-0.6,1.1-0.3,1.7-0.2c0.3,0,0.5,0.3,0.7,0.4c0.5,0.2,0.9,0.3,1.5,0
			c-0.4-0.7-1.2-0.8-2-1.2C728.3,82,728.5,81.9,728.8,81.7z M729.2,80.9c-0.1,0-0.1-0.1-0.2-0.1c-0.1,0-0.1,0.1-0.2,0.1
			c0.1,0,0.1,0.1,0.2,0.1C729.2,81,729.2,81,729.2,80.9z M730.7,84.9c0.1-0.3,0.6-0.6,0.3-0.9c-0.2-0.2-0.6-0.2-1-0.3
			C730.3,84.2,730.5,84.6,730.7,84.9c0.3,0,0.6,0.1,0.9,0.1c0,0,0-0.1,0-0.1C731.3,84.9,731,84.9,730.7,84.9z"/>
		<path class="st0" d="M770.9,73.2c0.2-0.1,0.5-0.2,0.8-0.2c1.7-0.5,3.3-1,5-1.4c2.7-0.6,5.2,0.2,7.5,1.5c1.4,0.7,2.8,1.6,4.1,2.4
			c0.6,0.4,1.1,0.8,1.6,1.3c0.9,0.8,1.1,1.8,0.9,3c-0.3,1.6-0.6,3.3-1,4.9c-0.5,2.2-0.3,4.4,0.2,6.6c0.3,1.1,0.6,2.3,0.8,3.5
			c0.2,1.1,0.2,2.3,0.3,3.4c0.1,0.7,0.2,1.4,0.3,2.2c0,0.5,0.1,1,0.1,1.7c-1.2-0.5-2.2-0.1-3.2-0.1c-1.3,0-2.6-0.3-4-0.4
			c-1.3-0.1-2.3-0.8-3.3-1.6c-1.4-1.2-2-2.8-2.2-4.5c0-0.3-0.1-0.5-0.1-0.7c0-0.1-0.1-0.1-0.1-0.2c-0.5,0.2-1.1,0.3-1.6,0.6
			c-1.6,0.8-3.4,1.2-5.1,1.5c-1.8,0.4-3.5,0.3-5.2-0.5c-2.2-1.2-3.6-3-4.1-5.4c-0.3-1.5-0.4-3.1-0.2-4.7c0-0.4,0.2-0.7,0.3-1.1
			c0.5-1.4,1-2.9,1.5-4.3c0.5-1.5,1.4-2.7,2.3-4c0.4-0.6,0.9-1.1,1.3-1.6C768,74.7,770.7,72.9,770.9,73.2z M779.9,83.9
			c0.5-0.2,0.8-0.2,1.1-0.4c1.1-0.8,1.7-1.9,1.9-3.2c0.1-0.6,0-1.3-0.3-1.9c-0.4-1-2.7-2-3.8-1.9c-2.8,0.5-5,1.7-6.4,4.3
			c-1.2,2.3-1.8,4.8-1.7,7.4c0,0.5,0.1,1,0.4,1.5c0.3-0.1,0.5-0.2,0.7-0.4c1-0.8,1.9-1.7,2.9-2.5c0.6-0.6,1.1-1.2,1.7-1.8
			c0.2-0.2,0.5-0.5,0.9-0.6c-0.2,0.5-0.9,0.7-0.7,1.4c0.5-0.1,0.8-0.4,1.1-0.8c0.1-0.2,0.3-0.5,0.5-0.6c0.5-0.2,0.7-0.6,1.1-0.9
			c0.2-0.2,0.4-0.6,0.9-0.4C780,83.3,780,83.5,779.9,83.9z"/>
		<path class="st0" d="M810.8,73.6c-0.9,0.4-1.8,0.9-2.6,1.3c-0.6,0.4-1,0.9-1.3,1.6c-0.3,0.6-0.7,1.2-1,1.8c-0.9,1.5-1.5,3-1.7,4.7
			c-0.1,0.7,0.1,1.5,0.1,2.2c0,0.9-0.1,1.7-0.1,2.6c0,1.1,0,2.2-0.1,3.3c-0.2,1.5-0.4,3-0.7,4.5c-0.1,0.4-0.3,0.8-0.6,1.2
			c-0.6,0.9-1,1.8-1.1,2.9c-0.1,0.6-0.3,0.9-0.9,1.1c-0.2,0-0.5,0.3-0.7,0.5c-0.2,0.2-0.3,0.4-0.4,0.6c-0.5-0.1-0.7-0.4-0.9-0.7
			c-2-3.1-2.7-6.5-2.9-10.1c-0.2-2.9-0.2-5.9,0.3-8.8c0.3-1.9,0.8-3.7,1.2-5.6c0.2-0.8,0.4-1.6,0.7-2.4c0.5-1.3,1.3-2.3,2.6-2.9
			c0.9-0.4,1.5-0.3,2.2,0.4c0.9,0.9,1.3,2,1.2,3.3c0,0.1,0,0.3,0,0.4c0,0,0,0.1,0.1,0.1c0.4,0.1,0.6-0.2,0.8-0.5
			c0.5-0.7,1.1-1.4,1.6-2c1.7-2.1,3.7-3.8,6.2-5c2.1-1,4.6-0.9,6.3,1.2c1.4,1.6,2.3,3.4,3,5.3c1.4,4,1.9,8.1,1.5,12.3
			c-0.1,1.4-0.4,2.7-1.3,3.8c-0.2,0.2-0.2,0.5-0.3,0.8c-0.2,0.6-0.4,1.1-0.6,1.7c0,0.1,0,0.1-0.1,0.2c-0.2,0.2-2.3,1.5-2.7,1.6
			c-0.4,0.1-0.6-0.1-0.8-0.4c-0.4-0.8-0.8-1.7-1-2.6c-0.2-1.6-0.3-3.2-0.3-4.9c0-2.5,0-4.9-0.3-7.4c-0.1-0.8-0.4-1.5-0.6-2.3
			c-0.2-0.7-0.3-1.5-0.8-2.1c-0.5-0.5-1.1-0.9-1.3-1.6c-0.1-0.4-0.6-0.2-0.9,0c-0.1-0.2-0.2-0.4-0.2-0.4
			C811.9,73.5,811.3,73.6,810.8,73.6c0.2-0.1,0.5-0.2,0.9-0.4c-0.6-0.1-1-0.1-1.6,0.3C810.5,73.6,810.7,73.6,810.8,73.6z"/>
		<path class="st0" d="M851.8,88c0.2,1.7,0.3,3.4,0.4,5.1c0,0.1,0,0.2,0,0.2c0.4,0.6,0.3,1.4,0.5,2.1c0.3,1.3,0,2.5-0.2,3.7
			c-0.5,0.4-1.3-0.1-1.6,0.5c0,0-0.2,0-0.3-0.1c-0.6-0.3-1.1-0.3-1.5,0.2c-0.1,0.1-0.4,0.1-0.6,0.2c-0.2,0-0.5-0.1-0.6,0
			c-0.4,0.5-0.9,0.2-1.4,0.2c-1,0.2-1.5-0.3-1.9-1c-0.4-0.9-0.8-1.7-0.5-2.6c0.1-0.2-0.2-0.4-0.3-0.6c-0.2,0.1-0.5,0.2-0.6,0.4
			c-0.3,0.3-0.5,0.8-0.9,1.1c-0.7,0.6-1.4,1.2-1.8,2c-0.1,0.1-0.3,0.2-0.5,0.3c-0.8,0.2-1.2,0.9-2.1,1c0,0-0.1,0.1-0.1,0.3
			c0.3,0.1,0.6,0.1,0.9,0.2c0,0.1,0.1,0.1,0.1,0.2c-0.1,0-0.2,0.1-0.3,0.1c-1.3,0-2.4,0.6-3.8,0.3c-0.6-0.1-1-0.2-1.4-0.6
			c-1.5-1.5-2.8-3.2-3.7-5c-0.9-1.9-1.3-3.8-1.6-5.8c-0.2-1.5-0.3-2.9-0.3-4.4c0-1.5,0.3-3,1.3-4.3c0.2-0.3,0.4-0.5,0.5-0.8
			c0.2-1.6,1.6-2,3-2.3c2.4-0.5,4.8-0.5,7.2,0c1.1,0.2,2.2,0.5,3.4,0.8c0.4-1.1,0.3-2.1,0.2-3.2c-0.3-3.2-0.7-6.4-1-9.7
			c-0.1-0.9,0-1.9,0.1-2.8c0.1-0.7,0.2-1.4,0.2-2.1c0.1-1.1,0.5-2.1,1.4-2.9c0.9,0.3,1.2,1.4,2.5,1.1c0.4,1.3,0.9,2.5,1.2,3.7
			c0.7,2.2,1.3,4.4,1.9,6.5c0.2,0.8,0.5,1.6,0.6,2.4c0.2,1,0.3,2,0.4,2.9C851.4,77.2,851.8,87.8,851.8,88z M836.7,84.2
			c-0.1,0.3,0,0.6-0.2,0.7c-1,0.6-1,1.4-1.1,2.3c0,0.1,0,0.3-0.1,0.4c-0.3,0.1-0.5,0.1-0.7,0.1c-0.2,0.9-0.3,1.7,0.2,2.5
			c0.5,0.8,0.9,1.7,1.3,2.6c0.3,0.6,0.6,0.8,1.5,0.8c1.6-0.1,3.3-0.3,4.9-0.5c0.3,0,0.6-0.2,0.8-0.2c0-0.2,0.1-0.3,0.1-0.4
			c-0.1-1.5-0.2-3-0.3-4.5c0-0.1,0-0.3-0.1-0.4c-1-1.2-1.9-2.5-3.8-2.4C839,84.3,838,83.8,836.7,84.2z M836.6,98.2
			c0-0.1-0.1-0.1-0.1-0.2c-0.2,0.1-0.5,0.2-0.7,0.3c-0.1,0,0,0.2-0.1,0.4C836.1,98.5,836.3,98.3,836.6,98.2z M840.6,81.7
			c-1.9-0.1-3.1,0.6-3.7,2c0.4-0.2,0.8-0.2,1-0.5c0.5-0.6,1.1-0.3,1.7-0.2c0.3,0,0.5,0.3,0.7,0.4c0.5,0.2,0.9,0.3,1.5,0
			c-0.4-0.7-1.2-0.8-2-1.2C840.1,82,840.3,81.9,840.6,81.7z M841,80.9c-0.1,0-0.1-0.1-0.2-0.1c-0.1,0-0.1,0.1-0.2,0.1
			c0.1,0,0.1,0.1,0.2,0.1C840.9,81,841,81,841,80.9z M842.4,84.9c0.1-0.3,0.6-0.6,0.3-0.9c-0.2-0.2-0.6-0.2-1-0.3
			C842.1,84.2,842.3,84.6,842.4,84.9c0.3,0,0.6,0.1,0.9,0.1c0,0,0-0.1,0-0.1C843.1,84.9,842.8,84.9,842.4,84.9z"/>
		<path class="st0" d="M897.9,88c0.2,1.7,0.3,3.4,0.4,5.1c0,0.1,0,0.2,0,0.2c0.4,0.6,0.3,1.4,0.5,2.1c0.3,1.3,0,2.5-0.2,3.7
			c-0.5,0.4-1.3-0.1-1.6,0.5c0,0-0.2,0-0.3-0.1c-0.6-0.3-1.1-0.3-1.5,0.2c-0.1,0.1-0.4,0.1-0.6,0.2c-0.2,0-0.5-0.1-0.6,0
			c-0.4,0.5-0.9,0.2-1.4,0.2c-1,0.2-1.5-0.3-1.9-1c-0.4-0.9-0.8-1.7-0.5-2.6c0.1-0.2-0.2-0.4-0.3-0.6c-0.2,0.1-0.5,0.2-0.6,0.4
			c-0.3,0.3-0.5,0.8-0.9,1.1c-0.7,0.6-1.4,1.2-1.8,2c-0.1,0.1-0.3,0.2-0.5,0.3c-0.8,0.2-1.2,0.9-2.1,1c0,0-0.1,0.1-0.1,0.3
			c0.3,0.1,0.6,0.1,0.9,0.2c0,0.1,0.1,0.1,0.1,0.2c-0.1,0-0.2,0.1-0.3,0.1c-1.3,0-2.4,0.6-3.8,0.3c-0.6-0.1-1-0.2-1.4-0.6
			c-1.5-1.5-2.8-3.2-3.7-5c-0.9-1.9-1.3-3.8-1.6-5.8c-0.2-1.5-0.3-2.9-0.3-4.4c0-1.5,0.3-3,1.3-4.3c0.2-0.3,0.4-0.5,0.5-0.8
			c0.2-1.6,1.6-2,3-2.3c2.4-0.5,4.8-0.5,7.2,0c1.1,0.2,2.2,0.5,3.4,0.8c0.4-1.1,0.3-2.1,0.2-3.2c-0.3-3.2-0.7-6.4-1-9.7
			c-0.1-0.9,0-1.9,0.1-2.8c0.1-0.7,0.2-1.4,0.2-2.1c0.1-1.1,0.5-2.1,1.4-2.9c0.9,0.3,1.2,1.4,2.5,1.1c0.4,1.3,0.9,2.5,1.2,3.7
			c0.7,2.2,1.3,4.4,1.9,6.5c0.2,0.8,0.5,1.6,0.6,2.4c0.2,1,0.3,2,0.4,2.9C897.5,77.2,897.9,87.8,897.9,88z M882.8,84.2
			c-0.1,0.3,0,0.6-0.2,0.7c-1,0.6-1,1.4-1.1,2.3c0,0.1,0,0.3-0.1,0.4c-0.3,0.1-0.5,0.1-0.7,0.1c-0.2,0.9-0.3,1.7,0.2,2.5
			c0.5,0.8,0.9,1.7,1.3,2.6c0.3,0.6,0.6,0.8,1.5,0.8c1.6-0.1,3.3-0.3,4.9-0.5c0.3,0,0.6-0.2,0.8-0.2c0-0.2,0.1-0.3,0.1-0.4
			c-0.1-1.5-0.2-3-0.3-4.5c0-0.1,0-0.3-0.1-0.4c-1-1.2-1.9-2.5-3.8-2.4C885.1,84.3,884.1,83.8,882.8,84.2z M882.6,98.2
			c0-0.1-0.1-0.1-0.1-0.2c-0.2,0.1-0.5,0.2-0.7,0.3c-0.1,0,0,0.2-0.1,0.4C882.2,98.5,882.4,98.3,882.6,98.2z M886.7,81.7
			c-1.9-0.1-3.1,0.6-3.7,2c0.4-0.2,0.8-0.2,1-0.5c0.5-0.6,1.1-0.3,1.7-0.2c0.3,0,0.5,0.3,0.7,0.4c0.5,0.2,0.9,0.3,1.5,0
			c-0.4-0.7-1.2-0.8-2-1.2C886.2,82,886.4,81.9,886.7,81.7z M887.1,80.9c-0.1,0-0.1-0.1-0.2-0.1c-0.1,0-0.1,0.1-0.2,0.1
			c0.1,0,0.1,0.1,0.2,0.1C887,81,887.1,81,887.1,80.9z M888.5,84.9c0.1-0.3,0.6-0.6,0.3-0.9c-0.2-0.2-0.6-0.2-1-0.3
			C888.1,84.2,888.3,84.6,888.5,84.9c0.3,0,0.6,0.1,0.9,0.1c0,0,0-0.1,0-0.1C889.1,84.9,888.8,84.9,888.5,84.9z"/>
		<path class="st0" d="M911.1,86.4c0.2,2.7-0.1,5.3-0.5,8c-0.7,4.1-1.3,8.2-1.9,12.2c-0.2,1.4-0.4,2.8-0.8,4.1
			c-0.1-1.1-0.4-2.2-0.3-3.3c0-1.1-0.1-2-0.9-3c0.1,1.2,0.2,2.2,0.3,3.3c-0.1,0-0.1,0-0.2,0.1c-0.1-0.3-0.2-0.5-0.2-0.8
			c-0.3-1.6-0.7-3.1-1.2-4.6c-0.5-1.8-0.8-3.6-1.1-5.4c-0.3-2.1-0.6-4.2-0.8-6.4c-0.2-2.1-0.2-4.3-0.3-6.4c0-0.9,0.1-1.8,0.8-2.4
			c0.2-0.2,0.2-0.5,0.3-0.7c0.2-0.3,0.3-0.6,0.5-0.9c0.1-0.2,0.3-0.4,0.4-0.6c0.5-1.3,2-1.7,2.8-0.6c0.1,0.1,0.2,0.3,0.3,0.4
			c0.6,1.2,1.3,2.4,1.9,3.6C910.8,84,911,85.2,911.1,86.4z M913.4,68.3c0,0.5,0,0.9,0,1.4c0,1.1,0,2.3-0.4,3.3
			c-0.2,0.4-0.3,0.9-0.6,1.3c-0.5,0.9-1.1,1.2-2.1,1c-1.6-0.2-2.8-1.1-3.8-2.3c-0.5-0.6-0.8-1.2-0.5-2c0.1-0.4,0.2-0.8,0.2-1.2
			c0.1-0.9,0.4-1.7,0.9-2.5c0.1-0.1,0.1-0.2,0.1-0.4c0-1,0-1,0.8-1.3c0.1-0.6,0.1-1.1,0.2-1.6c0.9,0.5,1.8,1,2.6,1.4
			c0.7,0.4,1.4,0.9,2.2,1.4C913.4,67.2,913.5,67.7,913.4,68.3z"/>
		<path class="st0" d="M937.5,72.6c-0.2,0.4-0.3,0.7-0.5,1.1c-0.4-0.5-1.1,0.9-1.5-0.5c-0.2,0.5-0.3,0.7-0.4,0.9
			c0.7,0.5,1.4,0.9,2,1.3c-1.7,1.1-3.8,1.6-5.8,2.2c-1.2,0.3-2.3,0.6-3.5,1c-1.3,0.5-2,1.3-2.1,2.8c-0.1,1.8-0.4,3.5-0.6,5.3
			c-0.2,1.8-0.4,3.5-0.5,5.3c-0.2,2.8-0.3,5.7-0.2,8.6c0,0.1,0,0.2-0.1,0.5c-0.5-0.6-0.8-1.1-1.2-1.6c-0.3,0.8,0.6,1.7-0.2,2.5
			c-0.4-0.2-0.5-0.6-0.6-0.9c-0.7-2.3-1.4-4.5-2-6.8c-0.5-2-1-4-1.3-6c-0.4-2-0.7-4.1-0.9-6.1c-0.2-2-0.4-4.1-0.4-6.1
			c0-1.5,0.1-3.1,0.2-4.6c0-0.4,0.2-0.9,0.3-1.3c0.6-1.7,1.7-2.3,3.7-1.7c0.5,0.1,0.9,0.4,1.3,0.8c0.4,0.4,0.7,0.4,1.1,0.1
			c0.6-0.3,1.2-0.6,1.8-0.9c2.9-1.3,5.9-1.8,9-0.5c1,0.4,2,0.7,3.1,1.1c-0.3,0.2-0.5,0.3-0.7,0.5c0.2,0.1,0.4,0.2,0.9,0.3
			c-0.2,0.1-0.3,0.1-0.4,0.1c-0.2,0.1-0.5,0.1-0.8,0.2c0.3,0.3,0.5,0.6,0.8,0.9c-1.1,0.4-2-0.5-3,0c0.1,0.6,0.6,0.5,0.9,0.5
			C936.7,71.6,937.2,72,937.5,72.6z M936.5,72.8c-0.5,0-0.9-0.5-1.6-0.1C935.5,73.1,936,73,936.5,72.8z"/>
		<path class="st0" d="M965.5,76.4c-0.5-0.5-0.9-1.2-1.8-1.3c0.3,0.4,0.5,0.8,0.7,1.1c0.7,0.8,0.9,1.8,1,2.8c0,0.7-0.1,1.4,0,2.1
			c0.1,0.8,0.2,1.6-0.6,2.2c-0.6,1.7-2,2.8-3.4,3.7c-0.9,0.5-1.8,1.1-2.7,1.6c-0.2,0.1-0.4,0.3-0.6,0.5c-0.8,1.1-2,1.8-3.1,2.6
			c-0.2,0.2-0.5,0.2-0.8,0.3c-0.7,0.2-0.8,0.4-0.6,1c0.3,1.3,1,2.3,1.9,3.1c1.5,1.3,3.3,1.9,5.2,2.2c2.1,0.4,4.1,1,6.2,2
			c-0.5-0.1-1-0.1-1.3-0.2c-0.4-0.1-0.8-0.3-1.2-0.4c-0.6-0.1-1.1-0.2-1.7-0.3c-0.5,0.9-1.3-0.1-2,0.2c0.1,0.1,0.1,0.1,0.2,0.1
			c0.2,0,0.6,0,0.5,0.4c-0.1,0.4-0.3,0.2-0.6,0.1c-0.4-0.1-0.7-0.2-1.1-0.3c-0.2,0-0.5-0.1-0.5,0.3c0,0.1-0.4,0.3-0.6,0.3
			c-1.1,0.1-2.1,0.4-3.1,0.8c-0.8,0.3-1.7,0.4-2.5,0.3c-1-0.2-2-0.3-3-0.6c-1.2-0.4-2.1-1.1-3-2c-2.2-2.2-3.2-5.1-3.6-8.1
			c-0.1-0.8-0.1-1.7-0.2-2.5c-0.2-1.6,0-3.2,0.5-4.7c1.1-3.7,2.9-7,6.3-9.2c1.7-1.1,3.5-2.1,5.5-2.5c1.9-0.3,3.7-0.3,5.5,0.4
			c1,0.4,2,0.7,2.9,1.2c0.8,0.4,1.4,1.1,2,1.7C965.9,75.9,965.9,76.2,965.5,76.4z M952,86.6c2.3-0.2,3.8-1.4,5.2-2.9
			c0.8-0.9,1.2-1.9,1.1-3.1c-0.1-1.6-0.5-1.8-1.9-1.1c-0.1,0-0.2,0.1-0.2,0.2c-2,1.5-3.3,3.4-4,5.8C952.1,85.8,952.1,86.2,952,86.6z
			"/>
		<path class="st0" d="M978,74.1c3-2.1,6.3-2.5,9.7-1.3c1.4,0.5,2.6,1.3,3.6,2.5c0.4,0.6,0.9,1.1,1.4,1.6c0.1,0.2,0.2,0.4,0.4,0.6
			c0.2,0.2,0.3,0.5,0.5,0.7c0.5,0.5-0.2,1.6-0.5,1.5c-0.6-0.2-1.2-0.4-1.8-0.6c-0.1,0-0.2,0-0.3,0.1l0,0c-0.1,0-0.3,0-0.4-0.1
			c-0.7-0.7-1.6-0.8-2.5-1.1c-0.3-0.1-0.6-0.1-0.9-0.2c-0.4,0-1.5,0.2-1.6,0.2c-1,0.4-1.7,1.1-2.6,1.6c-0.5,0.3-1,0.6-1.5,1
			c-0.2,0.1-0.3,0.3-0.5,0.5c0,0-1.1,1.9-1.2,2.5c-0.6,2.4-1.2,6-1.1,7c0.1,0.9,0.2,1.7,0.3,2.6c0,0.3,0.2,0.6,0.3,0.9
			c0,0.1,0.6,1,1.1,1.2c1,0.3,2.1,0.3,3.2,0.2c0.4,0,0.7-0.3,1-0.5c1-0.9,2-1.8,2.9-2.7c0.6-0.6,1-0.8,1.8-1.1c0,0.2,0,0.3,0,0.5
			c-0.6,0.1-0.6,0.1-0.7,0.7c0,0.1-0.1,0.3-0.2,0.4c-0.4,0.4-0.7,0.8-1.1,1.2c-0.1,0.1-0.1,0.2-0.1,0.4c0.3-0.1,0.4-0.2,0.6-0.3
			c0.3-0.2,0.6-0.4,0.9-0.5c0.3-0.1,0.4-0.3,0.2-0.6c0.2-0.1,0.4-0.1,0.6-0.2c-0.1-0.1-0.1-0.2-0.2-0.3c0.8-0.3,1.7-0.7,2.5-1
			c0.3,0.4-0.6,0.6,0,1c0.3-0.3,0.6-0.7,0.8-1c0-0.1,0.1-0.1,0.1-0.2c-0.1-0.6,0.4-0.7,0.7-0.8c0.4-0.2,0.9,0,1.3,0.2
			c0.2,0.1,0.2,1,0,1.3c-0.8,0.9-1.5,1.8-2.4,2.6c-0.6,0.6-0.9,1.1-0.7,1.9c0.1,0.5-0.3,0.7-0.6,1c-0.4,0.2-0.7,0.5-1.1,0.7
			c0.5,0.8-0.3,0.9-0.6,1.3c0,0.1,0.1,0.2,0.2,0.4c0,0-0.1,0.1-0.2,0.1c-0.7,0.3-1.4,0.6-2.1,0.9c-0.5,0.2-1.1,0.4-1.6,0.6
			c-0.7,0.3-1.4,0.6-2.5,0.6c-4.8-0.6-7.4-2.9-7.8-3.1c-1.2-0.7-2.1-1.7-3-2.8c-0.4-0.5-0.5-1.2-0.6-1.8c-0.1-0.3-0.2-1.7-0.2-2
			c0-0.2-0.1-0.4,0-0.6c0.5-0.9,0.3-1.9,0.5-2.8c0-0.2-0.1-0.4-0.3-0.7c-0.4,0.7-0.1,1.4-0.2,2c-0.3-0.8-0.2-1.6-0.2-2.4
			c0-0.5-0.2-0.9-0.2-1.4c0.1-0.7,0.1-1.5,0.4-2.2c0.4-1.1,1-2.1,1.4-3.2c0.3-0.9,0.9-1.8,1.4-2.7c0.7-1.2,2.5-2.7,2.4-2.8
			C976.8,75.5,977.5,74.4,978,74.1z"/>
		<path class="st0" d="M1026.8,70c-0.1,0.4-0.3,0.8-0.4,1.4c0.4,0.2,0.8,0.3,1.1,0.4c0.3,0.6,0.7,1.2,1,1.8c-1.5,1.6-3.2,3-5.3,3.7
			c-1.7,0.6-3.4,1.4-5,2.1c-0.7,0.3-1,0.7-1,1.5c0.1,2,0,3.9,0.1,5.9c0.1,1.7,0.5,3.4,1.7,4.9c0.7,0.9,1.6,1.4,2.7,1.4
			c1.3,0,2.6,0.1,3.9,0c0.6,0,1.1-0.3,1.7-0.5c0.7-0.3,1.4-0.6,2.1-0.9c0.1,0.1,0.1,0.1,0.2,0.2c-0.3,0.6-0.7,1.2-1,1.8
			c-0.6,0.9-1.3,1.8-2,2.8c0.1,0,0.2,0.1,0.3,0.1c0,0.1,0,0.2,0,0.2c-0.6,0.7-1.1,1.4-1.7,2.1c0,0,0,0.1-0.1,0.1
			c-1.1,0.8-2.1,1.8-3.3,2.5c-1.3,0.7-2.8,0.6-4.2,0.3c-0.6-0.1-1.1-0.5-1.7-0.8c-1.5-0.9-2.6-2.1-3.4-3.6c-0.5-0.9-0.9-1.9-1.3-2.8
			c-0.4-1.1-0.9-2.1-1.2-3.2c-0.3-1.3-0.5-2.6-0.7-3.8c-0.2-1.2-0.2-2.4-0.3-3.7c0-0.4-0.1-0.7-0.1-1.2c-0.4,0-0.9-0.1-1.3-0.1
			c-0.8,0-1.7,0-2.5,0.2c-1.2,0.2-2.1-0.3-3-1c-0.3-0.2-0.6-0.3-1.1-0.6c0.9-0.2,1.6-0.3,2.6-0.5c-1.1-0.5-2.1-0.1-2.9-0.5
			c0.6-0.3,1.5,0,2.2-0.8c-1.3,0-2.3,0-3.3,0c0-0.1,0-0.1,0-0.2c0.9-0.3,1.8-0.5,2.9-0.9c-1.1-0.7-2.1-0.7-3.4-0.4
			c1.8-0.9,3.3-1.7,4.8-2.5c1.8-1,3.6-1.9,5.5-2.9c0.5-0.3,0.8-0.6,0.9-1.3c0.1-0.9,0.3-1.9,0.5-2.8c0.6-2.2,1.1-4.5,1.7-6.6
			c0.5-1.5,1.4-2.9,2.5-4c1.6-1.6,3.7-0.8,4.5,1c0.8,1.8,0.9,3.7,0.5,5.6c-0.3,1.6-0.6,3.2-0.9,5c0.5,0,0.9,0,1.3-0.1
			c1.1-0.2,2.2-0.3,3.3-0.5c1.1-0.2,2.1-0.1,2.7,1c0,0.1,0.1,0.1,0.2,0.1C1026.7,69.9,1026.8,70,1026.8,70z"/>
	</g>
	<g>
		<g>
			<path class="st0" d="M65.9,118.3c0,0,82.2-4,91.5,0"/>
		</g>
		<g>
			<g>
				<path class="st0" d="M79.5,115.4c-0.3-0.4-0.4-0.6-0.7-1.1c-0.9-0.6-2.6-1.1-3-2c0-0.3,1.3-1.4,1.5-1.2c2.4,0.6,3.5,2.6,6.1,3.3
					c0.2,0.2,1-0.6,1.8-1.1c0,0-0.2-0.1-0.5-0.3c1-0.6,2.7-0.1,4-0.5c-0.3-0.2-0.3-0.2-0.5-0.4c1.1,1.1,3.3,0.7,4.9,0.6
					c0.3,0.1,0.6,0.3,0.8,0.4c1.5-0.3,2.9,0,4.7-0.6c1.5-0.4,3.6,0.1,5.6-0.2c3.4,0,7.2,1.3,10.2-0.4c0.5-0.3,1.5-0.3,2.4,0.4
					c1.9-1.9,5.5-1.4,8.2-1.1c1,0,1.6,0.8,2,1.4c2.6-0.8,5.3-1.4,8-1.4c3.5-0.1,6.9-0.2,10.8,0.6c0.5,0.1,1.6-0.1,2.1-0.4l0.7,0.5
					c2.3,0.1,4.5-0.6,6.6,0.1c0.7,0.2,1.4,0.6,1.8,1c0.2,0.2,0.4,0.4,0.5,0.6c0.2,0.2,0.3,0.5,0.4,0.7c0.4,1,0.2,2,0,2.9
					c-0.4,0-0.9,0.1-1.3,0.2c-0.4,0.1-0.8,0.3-1.2,0.4c-0.8,0.3-1.6,0.7-2.4,1c-1.6,0.6-3.3,0.9-5.3,0.1c-1.1-0.6-2.9,0-4.4,0.2
					c-1.2,0.4-2.6-0.6-3.7,0.5c-1.5-1.5-5.3-2.6-8-1.9c-0.2-0.2,0-0.3-0.4-0.5c-3.8,1.4-8.1,0.9-12.5,1.4c-2.2,0.4-4.8-0.1-7.5,0.6
					c-0.3,0.1-1.4-0.3-2.2-0.2l-0.8,0.4c-1.9,0-4.1,0.4-5.5-0.2c-1.7-0.5-3.1-0.2-4.6-0.5c-2.1-0.5-5.6,0.4-7.4-0.8
					c-0.2-0.2-1,0-1.5,0l-0.7-0.5c-0.5,0-0.8,0.8-1.3,0.8c-3.1-0.2-7,0.1-8.6-1.8C79,116.3,80,116,79.5,115.4z"/>
			</g>
			<g>
				<path class="st0" d="M66.6,112.2c0.1-0.3-0.4-0.4-0.7-0.3c0.3,0.3,0.5,0.7,1,0.9l-0.9-0.1c-0.4,0.7,0.9,0.2,0.4,0.5
					c-0.5-0.1-0.9-0.2-0.7-0.5c0.1,0.2,0.3,0.1,0.6,0.1c0-0.5-0.4-0.7-0.7-1l1.4,0L66.6,112.2z"/>
			</g>
			<g>
				<path class="st0" d="M69.7,112.9l-0.3-0.1c-0.1,0.3,0.2,0.5,0.4,0.7c-1.2-0.4,0-0.9-0.8-1.4C69,112.3,69.8,112.6,69.7,112.9z"/>
			</g>
			<g>
				<path class="st0" d="M68.1,114.3c-0.5-0.6-1.1-0.1-1.2-0.8l1.4,0.7L68.1,114.3z"/>
			</g>
			<g>
				<path class="st0" d="M77.3,113.6c0.4-0.2,0.2-0.1,0.9-0.1L77.3,113.6L77.3,113.6z"/>
			</g>
			<g>
				<path class="st0" d="M96.8,113.6c-0.6-0.4-1-0.8-1.9-0.9C95.8,112.7,96.6,113.5,96.8,113.6z"/>
			</g>
			<g>
				<path class="st0" d="M105.4,115.7c0,0.2,0.3,0.3-0.1,0.4c-0.2-0.1,0.1-0.7-0.6-0.4L105.4,115.7z"/>
			</g>
			<g>
				<path class="st0" d="M106.2,116.9l0.4,0.4C106.6,117.3,106.4,117.1,106.2,116.9z"/>
			</g>
			<g>
				<path class="st0" d="M82.3,111.8l0.1,0.1c0,0,0.1-0.1,0.1-0.1C82.5,111.8,82.4,111.8,82.3,111.8z"/>
			</g>
			<g>
				<path class="st0" d="M83.7,112.1l-0.9-0.5c-0.1,0.1-0.1,0.1-0.2,0.2C83.1,111.9,83,112.3,83.7,112.1z"/>
			</g>
			<g>
				<path class="st0" d="M82.5,112.1l-0.1-0.2c-0.8,0.4-1.2-0.5-2.3-0.2C81,112.1,81.8,112.2,82.5,112.1z"/>
			</g>
			<g>
				<path class="st0" d="M81.6,112.7l-0.3,0.3c-0.3-0.1-0.3-0.3-0.3-0.4l-0.6,0.1c-0.2,0.5,1.6,0.5,2.1,0.6L81.6,112.7z"/>
			</g>
			<g>
				<polygon class="st0" points="76.1,117 76.1,117 76.1,117 				"/>
			</g>
			<g>
				<path class="st0" d="M77.9,118.1l0-0.8c-0.8,0.1-0.9-0.5-1.8-0.3l0,0C76.5,117.8,77.2,117.5,77.9,118.1z"/>
			</g>
			<g>
				<path class="st0" d="M84.8,113c-0.8,0-1.4,0-1.6,0.5l1.4,0.2C84.1,113.3,84.7,113.3,84.8,113z"/>
			</g>
			<g>
				<path class="st0" d="M86,114.5l-0.7,0.1l0.3,0.3C85.7,114.7,85.8,114.6,86,114.5z"/>
			</g>
			<g>
				<path class="st0" d="M85.7,114.9c0,0.1,0.1,0.2,0.3,0.3L85.7,114.9z"/>
			</g>
			<g>
				<path class="st0" d="M84.3,115.6c0.5,0.5,0.4-0.1,1.2,0C85.5,115,84.7,115.6,84.3,115.6z"/>
			</g>
			<g>
				<polygon class="st0" points="87.5,115.7 87.8,116.2 87.8,115.6 				"/>
			</g>
			<g>
				<path class="st0" d="M93.1,113c-0.7,0.5,0.4,0.5,0.5,0.8L93.1,113z"/>
			</g>
			<g>
				<path class="st0" d="M88.4,117.1l-0.3-0.5l-0.1,0.3c-0.2,0-0.5,0.1-0.7-0.2C87.2,117.3,88,117,88.4,117.1z"/>
			</g>
			<g>
				<line class="st0" x1="91.3" y1="115.6" x2="92.1" y2="115.9"/>
			</g>
			<g>
				<path class="st0" d="M86.7,119.1c0,0.2,1.1,1-0.1,0.8c0.5,0.1,1.2,0,0.7,0.5c0.8,0,0-0.6,0.5-0.9
					C87.4,119.8,87.1,119.2,86.7,119.1z"/>
			</g>
			<g>
				<path class="st0" d="M88.6,119.6c0.4,0.1,0.9,0.3,1.1,0.1C89.3,119.7,88.9,119.2,88.6,119.6z"/>
			</g>
			<g>
				<polygon class="st0" points="89,121 88.5,120.5 88.8,121.1 				"/>
			</g>
			<g>
				<line class="st0" x1="96.5" y1="116.7" x2="96.4" y2="115.9"/>
			</g>
			<g>
				<path class="st0" d="M91.2,120.9l-1.4,0.1l1.2,0.3c0.7-0.4,0.4-0.6-0.2-0.8C91.1,120.7,91.2,120.8,91.2,120.9z"/>
			</g>
			<g>
				<path class="st0" d="M89.8,120l-0.4,0.2c0,0.1,0.6,0.1,1.1,0.2C90.1,120.3,89.8,120.2,89.8,120z"/>
			</g>
			<g>
				<path class="st0" d="M90.5,120.4c0.2,0.1,0.3,0.1,0.5,0.2C90.8,120.5,90.7,120.5,90.5,120.4z"/>
			</g>
			<g>
				<path class="st0" d="M99.8,116.2l-1.3-0.1C99,116.4,99.4,116.4,99.8,116.2z"/>
			</g>
			<g>
				<path class="st0" d="M92.3,121.6l0.2,0l0-0.6C92.1,121.1,92.3,121.5,92.3,121.6z"/>
			</g>
			<g>
				<path class="st0" d="M93.9,122.7c0.4,0.4,1.1-0.1,1.4-0.1c-0.5-0.4-0.9-0.4-1.5-0.5C94.3,122.2,93.9,122.5,93.9,122.7z"/>
			</g>
			<g>
				<path class="st0" d="M95.6,123.4l-1.2,0C94.7,124.1,95.1,123.5,95.6,123.4z"/>
			</g>
			<g>
				<path class="st0" d="M97.5,123.2c0.1-0.1,0-0.2,0.2-0.4c-0.2-0.2-0.6-0.1-0.9-0.2L97.5,123.2z"/>
			</g>
			<g>
				<path class="st0" d="M87.3,117.4c0.4,0,0.7-0.1,1-0.1c-0.5-0.1-1-0.2-1.4-0.4C87,117.1,87.1,117.3,87.3,117.4z"/>
			</g>
			<g>
				<path class="st0" d="M151.9,110.7c-1.7,0.9-4.5,0.9-6.1,1c-2.6-0.2-5.8,0.8-8.7,1.1l0-0.2c-2.3-0.4-5.3,0.2-7.9,0.3l0.1,0.3
					c0.4,0.1,1,0.1,0.7,0.5c-0.6-0.1-1.3-0.3-1.5-0.5l-0.4,0.5c-0.4-0.3-0.1-1.3-1.1-1c-0.6,1.1-2.3-0.8-2.3,0.6
					c-0.4-0.8-1.4-0.1-1.8-0.1l0.3,0.6c-1-0.3-2-1.3-2.5-1.1c-1.3,0.1-3,0.2-4.4,0.6c-0.3-0.7,1.5,0,0.6-0.8
					c-2.6,1.4-6.4-0.5-9.5,0.3c0.1,0.1,0.4,0.1,0.2,0.2c-0.6-0.6-1.5,0-2.5-0.3c0.2,0.5,1.5,0.5,2,0.6c-0.3,1.2-0.3-0.3-1.6,0.1
					c0.1,0.1,0.3,0.2,0.3,0.3c-1.3,0.3-0.5-0.7-1.5-0.5l0.6,0.4c-1,0-0.3,0.2-1.4,0.5c0.1-0.7-0.4-1.2-0.7-1.2
					c-0.1,0.3-1.2,0.1-1,0.7c-1.4-1.3-1.7,0.4-2.9-0.8c-0.5,0.5,0.5,0.6,0.5,1.1c-1.3,0.4-0.4-0.7-0.9-0.9c-0.4,0.2-2.1,0.5-2.8,0
					l0,0.5c-1.1-0.5-3-0.6-3.4-1.2c-0.4,0.7,0.4,0.7,1.2,0.7c0.2,0.4-0.6,0.6-1,0.5c0.2,0,0.3,0.3,0.5,0.1c0.1,0.4-0.5,0.2-0.7,0.3
					c-1.3-0.1,0.5-0.3-0.1-0.5c-0.5,0.2-1.8,0.1-1.2,0.7c-1.1,0.1-0.4-0.7-1-0.9c0.8,0.4,1.1-0.5,1.7,0c0.2-0.2,0.1-0.4-0.2-0.6
					c-0.9,0.2-2.6-0.3-2.5,0.3l-0.5-0.4l-0.4,0.5l-0.2-0.1c0.4,0.7,1.3,1,1.6,1.6c0.1,0.3-0.5,0.2-0.8,0.2l-0.3-0.5
					c-0.8-0.1-0.6,1-1.6,0.8c0.6-0.7-1.2-1-1.9-1.5c-0.8,1.3,0.1,1-0.5,2c-0.8,0-2,0.4-2.9,0c2.2-0.1-1.1-0.8,0.7-1.3
					c-0.4-0.1-0.7,0.1-1.1,0.1c-0.3-1,0.5-0.8,0-1.5l-0.1,0.7c-0.6-0.5-0.9-1.2-2-1.4c-0.1,0.3-0.6,0.7-1.1,0.5
					c-0.2-0.5-0.3-0.7-1.2-0.7c-1.8,1.3,1.9,1.6,2.4,2.8c2.7,0.2,2.9,3.3,6.3,3.8c0.5-0.4,0.3-0.5,1.3-0.8c0.6-1.1-1.5-0.8-2.1-1.5
					c0.3-0.2,0.6-0.4,0.9-0.2l-0.3-0.7c1.6-0.4,0.9,1.1,2.3,0.7l-0.3,0.2l0.8-0.2l-0.2-0.1c0.5-0.1,0.6-0.6,1.4-0.4l-0.6,0.5
					c0.4-0.4,0.5,0.5,1.1,0.2c-0.3,0.3-0.4,0.6-0.6,0.7c0.9,0.3,1.7,0.4,2.5,0.4c2.6-0.4,5.2-0.2,7.8,0.3c-0.1-0.1-0.2-0.2-0.3-0.2
					c0.4-0.2,0.7,0.1,1,0.4c0.5,0.1,1,0.2,1.4,0.4c1-0.1,1.9-0.3,3.1-0.2c0.1,0.4,0,0.5-0.2,0.5c0.5-0.1,0.7-0.2,0.3-0.6
					c0.8-0.1,1.1,0.3,1.7,0.3l-1.3,0.6c0.6,0.2,0.5-0.5,1.3-0.3c1.2-0.2-0.5-0.6-0.4-1.2l0.5,0.1l-0.5-0.7c1.1,0.2,1.6,0.8,2,1.2
					l-0.8-0.3c-0.3,0.8,1.3,0.1,1.6,0.6l-0.1,0.1c1.2,0-0.3-0.4,0.5-0.5l1.4,0.7l-0.2-0.5c0.8-0.3,2.4,0.5,3.7,0.6
					c0.8,0.1,1.8-0.3,2.7-0.4c-0.2-0.1-0.6-0.3-0.4-0.4c0.6,0,1.8,0,1.4,0.6l0.8-0.5c0.3,0,0.5,0.1,0.7,0.2l-0.2-0.2l1-0.2
					c0,0.1,0.4,0.4-0.1,0.4c1.1,0.6,2.5-0.6,4.2-0.3l-0.5,0.3c1-0.5,1.1,0.5,2.2,0.1l-0.2-0.4c0.8-0.2,2.3,0.3,2.1,0.7
					c0.1-1.1,0.5,0.3,0.9-0.6l0.5,1c0.5-0.3,1-0.4,0.7-0.9c0.8,0.4,1.5,0.5,1.9-0.1c0,0,0,0,0,0l0,0l0,0c0.2-0.1,1,0.1,0.6-0.4
					c1.8,0,1,0.9,2.7,0.9l0.1-0.7c1.3,0.2,2.7-0.4,3.7-0.8l0.1,0.6c0.7-0.1-0.1-0.6,1-0.7c0.1,0.1,0.3,0.3,0.3,0.5
					c1.1,0,2.4,0.4,4,0.5c0,0.1-0.2,0.2-0.3,0.3c0.7,0,1.8-0.2,2.6-0.4c1.8,1.1,4.3,2,6.7,2c1-0.6,1.8-1.3,2.6-2
					c0.7-0.7,1.3-1.5,1.6-2.3C156.6,113.5,154.5,111.8,151.9,110.7z"/>
			</g>
		</g>
	</g>
	<g>
		<g>
			<line class="st0" x1="461.2" y1="124.9" x2="742.4" y2="116.9"/>
		</g>
		<g>
			<g>
				<path class="st0" d="M503.1,121.4c-0.8-0.4-1.3-0.6-2.1-1c-2.7-0.6-7.7-0.9-9-1.8c0.1-0.3,4.1-1.4,4.8-1.3
					c7.2,0.5,10.4,2.4,18.4,3c0.7,0.1,3.1-0.7,5.5-1.1c0,0-0.7-0.1-1.5-0.3c3.3-0.7,8.3-0.3,12.3-0.7c-0.9-0.2-0.9-0.2-1.4-0.4
					c3.2,1.1,10,0.5,15,0.3c1,0.1,1.7,0.2,2.4,0.4c4.5-0.4,8.9-0.1,14.3-0.9c4.5-0.5,11.1-0.1,17.1-0.5c10.4-0.2,21.9,0.9,31.3-1.1
					c1.6-0.3,4.5-0.4,7.2,0.2c5.9-2.1,16.9-1.8,25-1.8c3,0,5,0.7,6.2,1.2c7.8-1,16.1-1.9,24.3-2.1c10.5-0.5,20.9-0.9,32.5-0.6
					c1.6,0,4.6-0.3,6.2-0.6c0.7,0.1,1.4,0.3,2.1,0.4c6.7-0.3,12.9-1.3,18.7-1c8,0.3,8.9,2.4,9.9,4.2c-8.5,1.5-16.9,4.9-29.9,3.9
					c-3.6-0.4-9,0.4-13.5,0.8c-3.8,0.5-8-0.3-11.3,0.9c-4.8-1.3-16.4-2-24.8-1.1c-0.7-0.1,0.1-0.3-1.1-0.4
					c-11.8,1.7-25,1.6-38.5,2.4c-6.8,0.6-14.8,0.2-23.2,1.1c-0.8,0.2-4.4-0.2-6.6,0c-0.8,0.2-1.6,0.3-2.3,0.5
					c-5.9,0.1-12.7,0.7-17,0.1c-5.1-0.4-9.6,0-14-0.2c-6.5-0.4-17.2,0.7-22.8-0.4c-0.7-0.1-3,0-4.5,0.1c-0.7-0.1-1.4-0.3-2.1-0.4
					c-1.5,0-2.4,0.8-3.9,0.8c-9.6,0-21.5,0.5-26.2-1.4C501.4,122.4,504.5,122,503.1,121.4z"/>
			</g>
			<g>
				<path class="st0" d="M463.9,118.8c0.4-0.3-1.1-0.3-2-0.3c0.8,0.3,1.3,0.6,3,0.9l-2.7,0c-1.4,0.7,2.6,0.1,1.1,0.5
					c-1.5,0-2.6-0.1-1.9-0.5c0.2,0.2,0.9,0,1.7,0.1c0.1-0.5-1.3-0.6-2.1-0.9l4.2-0.1L463.9,118.8z"/>
			</g>
			<g>
				<path class="st0" d="M473.2,119.3l-0.9,0c-0.4,0.3,0.5,0.5,1.3,0.6c-3.7-0.4,0-0.9-2.3-1.4C471.3,118.8,473.6,119,473.2,119.3z"
					/>
			</g>
			<g>
				<path class="st0" d="M468.4,120.8c-1.6-0.6-3.2,0-3.6-0.7l4.3,0.6L468.4,120.8z"/>
			</g>
			<g>
				<path class="st0" d="M496.4,119.8c1.3-0.3,0.6-0.1,2.7-0.1l-3,0L496.4,119.8z"/>
			</g>
			<g>
				<path class="st0" d="M556,118.8c-1.7-0.3-3-0.7-5.7-0.8C553,117.9,555.5,118.6,556,118.8z"/>
			</g>
			<g>
				<path class="st0" d="M582.5,120.3c-0.1,0.2,0.8,0.3-0.4,0.4c-0.6-0.1,0.2-0.7-1.7-0.3L582.5,120.3z"/>
			</g>
			<g>
				<path class="st0" d="M584.7,121.5l1.2,0.4C585.9,121.8,585.4,121.7,584.7,121.5z"/>
			</g>
			<g>
				<path class="st0" d="M512,117.6l0.2,0.1c0.1,0,0.3-0.1,0.4-0.1C512.5,117.7,512.3,117.6,512,117.6z"/>
			</g>
			<g>
				<path class="st0" d="M516.1,117.9l-2.8-0.4c-0.2,0.1-0.4,0.1-0.6,0.2C514.5,117.8,513.9,118.2,516.1,117.9z"/>
			</g>
			<g>
				<path class="st0" d="M512.5,118l-0.3-0.2c-2.4,0.5-3.5-0.4-7-0.1C507.8,118.1,510.5,118.1,512.5,118z"/>
			</g>
			<g>
				<path class="st0" d="M509.7,118.6l-1,0.3c-0.9,0-0.8-0.3-0.8-0.4l-1.8,0.1c-0.7,0.5,4.9,0.5,6.4,0.5L509.7,118.6z"/>
			</g>
			<g>
				<path class="st0" d="M492.5,123.2C492.5,123.2,492.6,123.2,492.5,123.2C492.6,123.2,492.5,123.2,492.5,123.2
					C492.5,123.2,492.5,123.2,492.5,123.2z"/>
			</g>
			<g>
				<path class="st0" d="M497.8,124.3l0.2-0.8c-2.4,0.2-2.8-0.4-5.5-0.2c0,0,0,0-0.1,0C493.5,124,495.9,123.6,497.8,124.3z"/>
			</g>
			<g>
				<path class="st0" d="M519.4,118.7c-2.4,0-4.2,0.1-4.9,0.6l4.4,0.1C517.3,119.1,519.1,119,519.4,118.7z"/>
			</g>
			<g>
				<path class="st0" d="M523.1,120.2l-2.1,0.1l0.9,0.2C522.1,120.5,522.4,120.3,523.1,120.2z"/>
			</g>
			<g>
				<path class="st0" d="M522,120.6c-0.1,0.1,0.2,0.2,1,0.3L522,120.6z"/>
			</g>
			<g>
				<path class="st0" d="M517.8,121.4c1.3,0.5,1.2-0.1,3.6-0.1C521.5,120.7,519,121.3,517.8,121.4z"/>
			</g>
			<g>
				<polygon class="st0" points="527.6,121.4 528.3,121.8 528.5,121.2 				"/>
			</g>
			<g>
				<path class="st0" d="M544.9,118.3c-2.2,0.6,1.3,0.5,1.5,0.8L544.9,118.3z"/>
			</g>
			<g>
				<path class="st0" d="M530.2,122.7l-0.7-0.5l-0.4,0.3c-0.6,0-1.5,0.1-2-0.1C526.5,123,529,122.6,530.2,122.7z"/>
			</g>
			<g>
				<line class="st0" x1="539.2" y1="121" x2="541.4" y2="121.3"/>
			</g>
			<g>
				<path class="st0" d="M524.8,124.8c-0.1,0.2,3.3,0.9-0.5,0.8c1.5,0,3.6-0.1,2.2,0.4c2.4,0,0.2-0.6,1.7-0.9
					C527,125.5,526,124.9,524.8,124.8z"/>
			</g>
			<g>
				<path class="st0" d="M530.6,125.2c1.2,0.1,2.6,0.3,3.2,0C532.7,125.2,531.7,124.8,530.6,125.2z"/>
			</g>
			<g>
				<polygon class="st0" points="531.7,126.6 530.1,126.1 531.1,126.7 				"/>
			</g>
			<g>
				<line class="st0" x1="554.9" y1="121.9" x2="554.8" y2="121.1"/>
			</g>
			<g>
				<path class="st0" d="M538.6,126.4l-4.2,0.2l3.8,0.2c2.3-0.4,1.2-0.6-0.5-0.8C538.2,126.1,538.5,126.2,538.6,126.4z"/>
			</g>
			<g>
				<path class="st0" d="M534.1,125.5l-1.3,0.3c0,0.1,1.8,0.1,3.5,0.2C535.2,125.8,534.3,125.7,534.1,125.5z"/>
			</g>
			<g>
				<path class="st0" d="M536.3,125.9c0.5,0,0.9,0.1,1.4,0.1C537.3,126,536.8,126,536.3,125.9z"/>
			</g>
			<g>
				<path class="st0" d="M565.1,121.2l-3.8,0C562.7,121.4,563.9,121.4,565.1,121.2z"/>
			</g>
			<g>
				<path class="st0" d="M541.7,127l0.6,0l0.2-0.6C541.2,126.5,541.7,126.9,541.7,127z"/>
			</g>
			<g>
				<path class="st0" d="M546.7,128c1.1,0.3,3.3-0.1,4.2-0.2c-1.4-0.4-2.9-0.3-4.6-0.4C548,127.5,546.8,127.8,546.7,128z"/>
			</g>
			<g>
				<path class="st0" d="M551.8,128.7l-3.6,0.1C549,129.4,550.3,128.7,551.8,128.7z"/>
			</g>
			<g>
				<path class="st0" d="M557.6,128.3c0.3-0.1,0.1-0.2,0.7-0.4c-0.5-0.2-1.7-0.1-2.6-0.1L557.6,128.3z"/>
			</g>
			<g>
				<path class="st0" d="M526.8,123c1.1,0,2-0.1,3-0.1c-1.5-0.1-2.9-0.2-4.4-0.3C525.9,122.8,526.3,122.9,526.8,123z"/>
			</g>
			<g>
				<path class="st0" d="M723,111c-4.5,1.2-12.9,1.6-17.6,1.9c-7.7,0.1-17.3,1.5-26.3,2l0.1-0.2c-7.1-0.1-16.2,0.7-23.9,1l0.4,0.3
					c1.3,0,3,0,2,0.4c-1.7-0.1-4.1-0.2-4.6-0.4l-1.3,0.5c-1.1-0.2-0.2-1.3-3.3-0.9c-1.8,1.2-6.9-0.6-7,0.8c-1.2-0.8-4.1,0-5.6,0
					l1,0.6c-3.2-0.3-6.2-1.1-7.7-0.9c-3.9,0.2-9.3,0.4-13.5,0.9c-1-0.7,4.5-0.1,1.7-0.8c-8.1,1.6-19.5-0.1-29.2,0.9
					c0.3,0.1,1.2,0.1,0.5,0.2c-1.9-0.5-4.5,0.1-7.6-0.1c0.5,0.5,4.6,0.4,6.1,0.4c-0.9,1.2-0.8-0.3-4.8,0.2c0.3,0.1,0.8,0.2,0.8,0.3
					c-3.9,0.4-1.6-0.7-4.6-0.4l1.7,0.3c-3,0-0.9,0.2-4.3,0.6c0.5-0.7-1.2-1.1-2-1.2c-0.4,0.3-3.6,0.2-3.2,0.8
					c-4.1-1.2-5.2,0.5-9-0.6c-1.6,0.6,1.6,0.6,1.5,1.1c-4,0.5-1.3-0.6-2.7-0.8c-1.3,0.3-6.4,0.6-8.6,0.2l-0.1,0.5
					c-3.4-0.4-9-0.4-10.3-1c-1.4,0.7,1.3,0.6,3.7,0.6c0.5,0.4-1.9,0.6-3.1,0.5c0.6,0,0.8,0.3,1.5,0c0.2,0.4-1.5,0.2-2.2,0.3
					c-4.1-0.1,1.6-0.3-0.1-0.5c-1.5,0.2-5.4,0.2-3.8,0.8c-3.3,0.1-1.3-0.6-3-0.9c2.6,0.4,3.4-0.6,5.3-0.1c0.7-0.3,0.4-0.4-0.4-0.6
					c-2.7,0.2-7.9-0.2-7.8,0.5l-1.4-0.4l-1.3,0.5l-0.6-0.1c1.3,0.6,3.9,0.9,4.9,1.5c0.2,0.3-1.5,0.2-2.4,0.3l-0.7-0.5
					c-2.3-0.1-1.8,1.1-5,0.9c2-0.8-3.6-1-5.8-1.4c-2.4,1.3,0.3,1-1.8,2.1c-2.4,0-6,0.5-8.9,0.1c6.8-0.2-3.3-0.8,2.1-1.4
					c-1.2-0.1-2.1,0.1-3.3,0.1c-0.9-1,1.7-0.8,0.1-1.5l-0.5,0.7c-1.6-0.5-2.6-1.2-5.8-1.3c-0.4,0.3-2,0.8-3.4,0.6
					c-0.5-0.5-0.7-0.7-3.7-0.6c-5.7,1.4,5.8,1.5,6.9,2.7c8.2,0.1,8.6,3.1,18.8,3.5c1.6-0.4,1-0.6,4.1-0.8c2.1-1.1-4.5-0.8-6.4-1.4
					c0.9-0.2,1.9-0.4,2.7-0.2l-1-0.7c4.8-0.4,2.7,1,6.9,0.6l-0.9,0.2l2.4-0.3l-0.6-0.1c1.5-0.1,1.9-0.6,4.3-0.4l-1.9,0.5
					c1.3-0.4,1.6,0.5,3.5,0.2c-1,0.3-1.3,0.7-2,0.7c2.7,0.3,5.2,0.3,7.6,0.3c8.1-0.6,16-0.5,23.8-0.1c-0.3-0.1-0.7-0.2-0.9-0.2
					c1.4-0.2,2.3,0,3.1,0.3c1.5,0.1,2.9,0.2,4.4,0.3c3.2-0.2,5.7-0.4,9.6-0.4c0.2,0.4-0.1,0.5-0.5,0.5c1.4-0.1,2.2-0.3,0.9-0.6
					c2.4-0.2,3.5,0.2,5.3,0.2l-4,0.7c1.7,0.2,1.6-0.6,3.9-0.4c3.6-0.3-1.6-0.6-1.2-1.1l1.5,0l-1.6-0.7c3.2,0.1,4.8,0.7,6.2,1.1
					l-2.3-0.2c-0.8,0.9,3.8,0,4.9,0.5l-0.3,0.1c3.6-0.1-0.8-0.4,1.6-0.6l4.3,0.6l-0.7-0.5c2.5-0.4,7.3,0.3,11.4,0.4
					c2.3,0.1,5.4-0.4,8.4-0.6c-0.6-0.1-1.7-0.2-1.4-0.4c1.8,0,5.7-0.1,4.3,0.5l2.5-0.5c0.9,0,1.6,0,2.2,0.1l-0.7-0.2l3-0.3
					c0,0.1,1.1,0.3-0.4,0.4c3.4,0.5,7.6-0.8,12.9-0.6l-1.6,0.3c3.1-0.5,3.4,0.4,6.8,0l-0.8-0.4c2.4-0.3,7.1,0.1,6.4,0.5
					c0.3-1.1,1.4,0.3,2.9-0.7l1.5,0.9c1.6-0.3,3.1-0.5,2-1c2.5,0.4,4.5,0.4,5.9-0.3c0,0,0,0,0.1,0c0,0,0,0,0.1,0l0,0
					c0.5-0.1,3,0,1.9-0.4c5.7-0.2,3,0.9,8.4,0.7l0.2-0.7c4.1,0.1,8.2-0.7,11.3-1.2l0.4,0.6c2.1-0.2-0.4-0.6,2.9-0.8
					c0.5,0.1,0.9,0.3,0.8,0.4c3.2-0.1,7.5,0.1,12.4,0c0,0.1-0.7,0.3-1,0.3c2.1-0.1,5.4-0.4,7.9-0.7c5.6,0.9,13.7,1.3,21.1,0.9
					c5.7-1.6,9.4-3.5,9.9-5.2C736.5,112.7,730.6,111.7,723,111z"/>
			</g>
		</g>
	</g>
	<g>
		<g>
			<line class="st0" x1="863.1" y1="120.9" x2="1043.5" y2="116.9"/>
		</g>
		<g>
			<g>
				<path class="st0" d="M890,118c-0.5-0.4-0.8-0.6-1.3-1c-1.7-0.6-5-1-5.8-1.9c0.1-0.3,2.6-1.4,3.1-1.2c4.7,0.6,6.7,2.5,11.8,3.3
					c0.5,0.1,2-0.6,3.5-1.1c0,0-0.4-0.1-1-0.3c2.1-0.6,5.3-0.2,7.9-0.6c-0.6-0.2-0.6-0.2-0.9-0.4c2.1,1.1,6.4,0.6,9.6,0.5
					c0.6,0.1,1.1,0.3,1.5,0.4c2.9-0.3,5.7,0,9.2-0.7c2.9-0.4,7.1,0,11-0.3c6.7,0,14.1,1.2,20.1-0.7c1-0.3,2.9-0.3,4.6,0.3
					c3.7-2,10.8-1.5,16-1.4c1.9,0,3.2,0.7,4,1.3c5-0.9,10.3-1.6,15.6-1.8c6.7-0.3,13.4-0.6,20.9-0.1c1,0.1,3-0.3,4-0.6
					c0.5,0.1,0.9,0.3,1.4,0.4c4.3-0.2,8.3-1.1,12-0.8c5.2,0.4,5.7,2.5,6.4,4.4c-5.5,1.4-10.8,4.7-19.2,3.5c-2.3-0.4-5.8,0.3-8.7,0.6
					c-2.5,0.5-5.2-0.4-7.3,0.8c-3.1-1.3-10.6-2.2-15.9-1.5c-0.5-0.1,0.1-0.3-0.7-0.5c-7.5,1.5-16.1,1.3-24.7,1.9
					c-4.4,0.5-9.5,0-14.9,0.8c-0.5,0.2-2.8-0.3-4.3-0.1c-0.5,0.2-1,0.3-1.5,0.5c-3.8,0-8.2,0.5-10.9-0.1c-3.2-0.4-6.2-0.1-9-0.4
					c-4.2-0.4-11,0.5-14.6-0.7c-0.5-0.2-1.9,0-2.9,0c-0.4-0.1-0.9-0.3-1.3-0.4c-1,0-1.6,0.8-2.5,0.8c-6.2-0.1-13.8,0.2-16.8-1.8
					C888.9,118.9,890.9,118.6,890,118z"/>
			</g>
			<g>
				<path class="st0" d="M864.8,114.8c0.2-0.3-0.7-0.4-1.3-0.3c0.5,0.3,0.8,0.7,1.9,0.9l-1.7-0.1c-0.9,0.7,1.7,0.2,0.7,0.5
					c-0.9-0.1-1.7-0.2-1.2-0.5c0.2,0.2,0.6,0.1,1.1,0.1c0.1-0.5-0.8-0.7-1.4-1l2.7,0L864.8,114.8z"/>
			</g>
			<g>
				<path class="st0" d="M870.8,115.5l-0.6-0.1c-0.2,0.3,0.3,0.5,0.8,0.7c-2.4-0.4,0-0.9-1.5-1.4C869.5,115,871,115.2,870.8,115.5z"
					/>
			</g>
			<g>
				<path class="st0" d="M867.7,116.9c-1-0.6-2.1-0.1-2.3-0.8l2.7,0.7L867.7,116.9z"/>
			</g>
			<g>
				<path class="st0" d="M885.7,116.3c0.8-0.2,0.4-0.1,1.7-0.1l-1.9,0L885.7,116.3z"/>
			</g>
			<g>
				<path class="st0" d="M923.9,116.1c-1.1-0.4-2-0.8-3.7-0.8C922,115.2,923.6,116,923.9,116.1z"/>
			</g>
			<g>
				<path class="st0" d="M940.9,118.1c0,0.2,0.5,0.3-0.3,0.4c-0.4-0.1,0.1-0.7-1.1-0.4L940.9,118.1z"/>
			</g>
			<g>
				<path class="st0" d="M942.3,119.3l0.8,0.4C943.1,119.6,942.8,119.4,942.3,119.3z"/>
			</g>
			<g>
				<path class="st0" d="M895.7,114.4l0.1,0.1c0.1,0,0.2-0.1,0.3-0.1C896,114.4,895.9,114.4,895.7,114.4z"/>
			</g>
			<g>
				<path class="st0" d="M898.3,114.7l-1.8-0.5c-0.1,0.1-0.3,0.1-0.4,0.2C897.3,114.5,896.9,115,898.3,114.7z"/>
			</g>
			<g>
				<path class="st0" d="M896,114.7l-0.2-0.2c-1.6,0.4-2.3-0.5-4.5-0.2C893,114.8,894.7,114.8,896,114.7z"/>
			</g>
			<g>
				<path class="st0" d="M894.2,115.3l-0.6,0.3c-0.6-0.1-0.5-0.3-0.5-0.4l-1.2,0.1c-0.5,0.5,3.1,0.5,4.1,0.6L894.2,115.3z"/>
			</g>
			<g>
				<path class="st0" d="M883.2,119.7C883.2,119.7,883.2,119.7,883.2,119.7C883.2,119.7,883.2,119.7,883.2,119.7
					C883.2,119.7,883.2,119.7,883.2,119.7z"/>
			</g>
			<g>
				<path class="st0" d="M886.6,120.8l0.1-0.8c-1.5,0.1-1.8-0.5-3.5-0.3c0,0,0,0,0,0C883.8,120.5,885.4,120.1,886.6,120.8z"/>
			</g>
			<g>
				<path class="st0" d="M900.5,115.6c-1.5,0-2.7,0-3.1,0.5l2.8,0.2C899.1,115.9,900.2,115.9,900.5,115.6z"/>
			</g>
			<g>
				<path class="st0" d="M902.8,117.1l-1.3,0.1l0.6,0.3C902.1,117.4,902.4,117.2,902.8,117.1z"/>
			</g>
			<g>
				<path class="st0" d="M902.1,117.5c-0.1,0.1,0.1,0.2,0.6,0.3L902.1,117.5z"/>
			</g>
			<g>
				<path class="st0" d="M899.4,118.2c0.9,0.5,0.8-0.1,2.3,0C901.8,117.6,900.2,118.2,899.4,118.2z"/>
			</g>
			<g>
				<polygon class="st0" points="905.7,118.3 906.2,118.8 906.3,118.2 				"/>
			</g>
			<g>
				<path class="st0" d="M916.8,115.5c-1.4,0.5,0.9,0.5,1,0.8L916.8,115.5z"/>
			</g>
			<g>
				<path class="st0" d="M907.4,119.7l-0.5-0.5l-0.2,0.3c-0.4,0-1,0.1-1.3-0.2C905,119.9,906.6,119.5,907.4,119.7z"/>
			</g>
			<g>
				<line class="st0" x1="913.1" y1="118.1" x2="914.6" y2="118.5"/>
			</g>
			<g>
				<path class="st0" d="M904,121.7c0,0.2,2.1,1-0.3,0.8c0.9,0.1,2.3,0,1.4,0.5c1.5,0,0.1-0.6,1.1-0.9
					C905.3,122.4,904.7,121.8,904,121.7z"/>
			</g>
			<g>
				<path class="st0" d="M907.7,122.2c0.7,0.1,1.7,0.3,2.1,0.1C909,122.3,908.3,121.8,907.7,122.2z"/>
			</g>
			<g>
				<polygon class="st0" points="908.4,123.6 907.3,123.1 908,123.7 				"/>
			</g>
			<g>
				<line class="st0" x1="923.2" y1="119.2" x2="923.2" y2="118.4"/>
			</g>
			<g>
				<path class="st0" d="M912.8,123.5l-2.7,0.1l2.4,0.3c1.5-0.4,0.7-0.6-0.3-0.8C912.5,123.3,912.7,123.4,912.8,123.5z"/>
			</g>
			<g>
				<path class="st0" d="M909.9,122.6l-0.8,0.2c0,0.1,1.2,0.1,2.2,0.2C910.6,122.9,910,122.8,909.9,122.6z"/>
			</g>
			<g>
				<path class="st0" d="M911.3,123c0.3,0.1,0.6,0.1,0.9,0.2C912,123.1,911.7,123,911.3,123z"/>
			</g>
			<g>
				<path class="st0" d="M929.8,118.7l-2.5-0.1C928.2,118.8,929,118.8,929.8,118.7z"/>
			</g>
			<g>
				<path class="st0" d="M914.7,124.2l0.4,0l0.1-0.6C914.5,123.7,914.8,124,914.7,124.2z"/>
			</g>
			<g>
				<path class="st0" d="M918,125.2c0.7,0.4,2.1-0.1,2.7-0.1c-0.9-0.4-1.8-0.4-3-0.5C918.8,124.8,918,125,918,125.2z"/>
			</g>
			<g>
				<path class="st0" d="M921.3,126l-2.3,0C919.5,126.6,920.3,126,921.3,126z"/>
			</g>
			<g>
				<path class="st0" d="M925,125.7c0.2-0.1,0-0.2,0.4-0.4c-0.3-0.2-1.1-0.1-1.7-0.2L925,125.7z"/>
			</g>
			<g>
				<path class="st0" d="M905.2,120c0.7,0,1.3-0.1,1.9-0.1c-0.9-0.1-1.9-0.2-2.8-0.3C904.6,119.7,904.9,119.9,905.2,120z"/>
			</g>
			<g>
				<path class="st0" d="M1031.1,110.7c-2.9,1.1-8.3,1.4-11.3,1.6c-4.9,0-11.1,1.3-16.8,1.7l0-0.2c-4.5-0.2-10.4,0.5-15.3,0.6
					l0.3,0.3c0.8,0,1.9,0,1.3,0.5c-1.1-0.1-2.6-0.2-3-0.5l-0.8,0.5c-0.7-0.2-0.2-1.3-2.1-1c-1.2,1.1-4.4-0.7-4.5,0.7
					c-0.8-0.8-2.6,0-3.6-0.1l0.7,0.6c-2-0.3-4-1.2-5-1c-2.5,0.2-5.9,0.3-8.7,0.7c-0.6-0.7,2.9-0.1,1.1-0.8
					c-5.2,1.5-12.5-0.3-18.7,0.5c0.2,0.1,0.7,0.1,0.3,0.2c-1.2-0.5-2.9,0.1-4.9-0.2c0.3,0.5,3,0.5,3.9,0.5c-0.6,1.2-0.5-0.3-3.1,0.1
					c0.2,0.1,0.5,0.2,0.5,0.3c-2.5,0.3-1-0.7-3-0.5l1.1,0.4c-1.9,0-0.6,0.2-2.7,0.5c0.3-0.7-0.8-1.1-1.3-1.2c-0.2,0.3-2.3,0.1-2,0.7
					c-2.6-1.3-3.3,0.4-5.8-0.8c-1,0.5,1,0.6,1,1.1c-2.5,0.4-0.8-0.7-1.8-0.8c-0.8,0.2-4.1,0.6-5.5,0.1l-0.1,0.5
					c-2.2-0.5-5.8-0.5-6.6-1.2c-0.9,0.7,0.8,0.7,2.4,0.7c0.3,0.4-1.2,0.6-2,0.5c0.4,0,0.5,0.3,0.9,0.1c0.1,0.4-1,0.2-1.4,0.3
					c-2.6-0.1,1-0.3-0.1-0.5c-1,0.2-3.4,0.1-2.4,0.7c-2.1,0.1-0.8-0.7-1.9-0.9c1.6,0.4,2.2-0.5,3.4,0c0.4-0.2,0.3-0.4-0.3-0.6
					c-1.7,0.2-5.1-0.3-5,0.4l-0.9-0.4l-0.8,0.5l-0.4-0.1c0.8,0.7,2.5,1,3.2,1.6c0.1,0.3-1,0.2-1.6,0.2l-0.5-0.5
					c-1.5-0.1-1.1,1-3.2,0.9c1.3-0.7-2.3-1-3.7-1.5c-1.6,1.3,0.2,1-1.1,2.1c-1.5,0-3.9,0.4-5.7,0c4.4-0.1-2.1-0.8,1.4-1.3
					c-0.7-0.1-1.3,0.1-2.1,0.1c-0.6-1,1.1-0.8,0.1-1.5l-0.3,0.7c-1.1-0.5-1.7-1.2-3.8-1.4c-0.2,0.3-1.3,0.7-2.2,0.5
					c-0.3-0.5-0.5-0.7-2.4-0.7c-3.7,1.3,3.7,1.6,4.5,2.8c5.3,0.2,5.5,3.2,12.1,3.8c1-0.4,0.7-0.5,2.6-0.8c1.3-1.1-2.9-0.8-4.1-1.5
					c0.6-0.2,1.2-0.4,1.7-0.2l-0.6-0.7c3.1-0.4,1.7,1.1,4.4,0.7l-0.6,0.2l1.6-0.2l-0.4-0.1c1-0.1,1.2-0.6,2.7-0.4l-1.2,0.5
					c0.8-0.4,1.1,0.5,2.2,0.2c-0.7,0.3-0.8,0.6-1.3,0.7c1.8,0.3,3.3,0.4,4.9,0.4c5.2-0.5,10.2-0.3,15.3,0.3
					c-0.2-0.1-0.5-0.2-0.6-0.2c0.9-0.2,1.5,0.1,2,0.4c0.9,0.1,1.9,0.2,2.8,0.3c2-0.1,3.7-0.3,6.2-0.3c0.1,0.4,0,0.5-0.3,0.5
					c0.9-0.1,1.4-0.2,0.5-0.6c1.5-0.1,2.2,0.2,3.4,0.2l-2.6,0.7c1.1,0.2,1-0.5,2.5-0.3c2.3-0.2-1-0.6-0.8-1.1l0.9,0.1l-1-0.7
					c2.1,0.2,3.1,0.8,4,1.2l-1.5-0.2c-0.5,0.8,2.5,0.1,3.1,0.5l-0.2,0.1c2.3,0-0.5-0.4,1-0.5l2.7,0.7l-0.5-0.5
					c1.6-0.4,4.7,0.4,7.3,0.5c1.5,0.1,3.5-0.4,5.4-0.5c-0.4-0.1-1.1-0.2-0.9-0.4c1.1,0,3.6-0.1,2.8,0.5l1.6-0.5c0.6,0,1,0.1,1.4,0.2
					l-0.4-0.2l1.9-0.2c0,0.1,0.7,0.4-0.3,0.4c2.2,0.6,4.9-0.7,8.3-0.4l-1,0.3c2-0.5,2.2,0.5,4.4,0.1l-0.5-0.4
					c1.6-0.2,4.5,0.2,4.1,0.6c0.2-1.1,0.9,0.3,1.8-0.7l1,1c1-0.3,2-0.5,1.3-1c1.6,0.4,2.9,0.5,3.8-0.2c0,0,0,0,0,0c0,0,0,0,0,0l0,0
					c0.3-0.1,1.9,0.1,1.2-0.4c3.6-0.1,1.9,0.9,5.4,0.8l0.1-0.7c2.6,0.1,5.2-0.6,7.2-1l0.3,0.6c1.4-0.2-0.3-0.6,1.8-0.8
					c0.3,0.1,0.6,0.3,0.5,0.4c2.1-0.1,4.8,0.2,7.9,0.2c0,0.1-0.4,0.2-0.6,0.3c1.3-0.1,3.5-0.4,5.1-0.6c3.6,0.9,8.8,1.5,13.6,1.2
					c3.6-1.6,6-3.3,6.3-5.1C1039.7,112.6,1035.9,111.5,1031.1,110.7z"/>
			</g>
		</g>
	</g>
</g>
</svg>
